<svg width="414" height="297" viewBox="0 0 414 297" fill="none" xmlns="http://www.w3.org/2000/svg">
<path d="M110.132 35.8226C72.8241 46.3447 32.2489 69.4933 25.1686 98.4874C18.0884 127.482 44.5031 162.321 68.7394 198.564C92.9756 234.573 115.033 271.751 145.261 274.791C175.488 277.83 213.885 246.966 264.808 235.274C315.459 223.583 378.637 231.299 402.056 211.892C425.475 192.485 409.408 145.72 396.609 101.527C383.811 57.1006 374.007 15.0123 344.325 3.55495C314.37 -7.90242 264.536 11.2711 222.599 19.6888C180.934 28.1065 147.167 25.5344 110.132 35.8226Z" fill="#FFDA55"/>
<path d="M276.497 179.855L163.904 181.552L164.154 198.168L276.748 196.472L276.497 179.855Z" fill="#02639A"/>
<path d="M201.427 164.376L187.313 181.271L253.217 180.279L238.598 163.81" fill="#0D74BA"/>
<path d="M205.271 169.688C205.144 161.501 211.688 154.761 219.875 154.634C228.062 154.507 234.803 161.05 234.929 169.238" fill="#0D74BA"/>
<path d="M242.673 93.7988C249.903 99.6922 254.575 108.618 254.731 118.678C255.006 136.75 240.575 151.611 222.517 151.884C217.319 151.96 212.389 150.828 207.991 148.74" stroke="#4AC4DA" stroke-width="10" stroke-miterlimit="10"/>
<path d="M223.035 142.505L188.718 138.421L187.084 152.157L221.4 156.241L223.035 142.505Z" fill="#4E9BCE"/>
<path d="M233.81 58.9812L203.1 101.489C201.276 104.013 201.844 107.537 204.368 109.361L218.918 119.872C221.442 121.696 224.966 121.128 226.79 118.604L257.5 76.0965C259.324 73.5724 258.756 70.0477 256.232 68.2241L241.682 57.7127C239.158 55.889 235.634 56.457 233.81 58.9812Z" fill="#02639A"/>
<path d="M230.548 108.706L211.048 94.6174C208.524 92.7938 204.999 93.3617 203.176 95.8859L198.797 101.946C196.974 104.47 197.542 107.995 200.066 109.819L219.566 123.907C222.09 125.73 225.615 125.163 227.438 122.638L231.817 116.578C233.64 114.054 233.072 110.529 230.548 108.706Z" fill="#02639A"/>
<path d="M250.057 48.6608L232.785 72.5683C231.098 74.904 231.623 78.1653 233.959 79.8527L237.652 82.5212C239.988 84.2086 243.249 83.6831 244.937 81.3475L262.209 57.44C263.896 55.1043 263.371 51.843 261.035 50.1556L257.342 47.4871C255.006 45.7997 251.745 46.3252 250.057 48.6608Z" fill="#02639A"/>
<path d="M244.575 105.392C250.036 105.309 254.396 100.816 254.314 95.355C254.232 89.8941 249.738 85.5339 244.277 85.6162C238.816 85.6984 234.456 90.1921 234.538 95.6529C234.621 101.114 239.114 105.474 244.575 105.392Z" fill="#02639A" stroke="#4F9BCD" stroke-width="4" stroke-miterlimit="10"/>
<path d="M364.107 49.0941C366.078 49.0941 367.675 47.4968 367.675 45.5265C367.675 43.5563 366.078 41.959 364.107 41.959C362.137 41.959 360.54 43.5563 360.54 45.5265C360.54 47.4968 362.137 49.0941 364.107 49.0941Z" fill="#02639A"/>
<path d="M365.933 53.8299C367.903 53.8299 369.5 52.2326 369.5 50.2623C369.5 48.292 367.903 46.6948 365.933 46.6948C363.962 46.6948 362.365 48.292 362.365 50.2623C362.365 52.2326 363.962 53.8299 365.933 53.8299Z" fill="#48C4DA"/>
<path d="M365.933 47.4383C367.903 47.4383 369.5 45.841 369.5 43.8707C369.5 41.9004 367.903 40.3032 365.933 40.3032C363.962 40.3032 362.365 41.9004 362.365 43.8707C362.365 45.841 363.962 47.4383 365.933 47.4383Z" fill="#48C4DA"/>
<path d="M374.228 48.4178C376.198 48.4178 377.795 46.8205 377.795 44.8502C377.795 42.8799 376.198 41.2827 374.228 41.2827C372.258 41.2827 370.66 42.8799 370.66 44.8502C370.66 46.8205 372.258 48.4178 374.228 48.4178Z" fill="#48C4DA"/>
<path d="M369.5 51.0096C371.47 51.0096 373.068 49.4124 373.068 47.4421C373.068 45.4718 371.47 43.8745 369.5 43.8745C367.53 43.8745 365.933 45.4718 365.933 47.4421C365.933 49.4124 367.53 51.0096 369.5 51.0096Z" fill="#02639A"/>
<path d="M374.228 52.6614C376.198 52.6614 377.795 51.0642 377.795 49.0939C377.795 47.1236 376.198 45.5264 374.228 45.5264C372.258 45.5264 370.66 47.1236 370.66 49.0939C370.66 51.0642 372.258 52.6614 374.228 52.6614Z" fill="#02639A"/>
<path d="M369.5 54.577C371.47 54.577 373.068 52.9797 373.068 51.0094C373.068 49.0391 371.47 47.4419 369.5 47.4419C367.53 47.4419 365.933 49.0391 365.933 51.0094C365.933 52.9797 367.53 54.577 369.5 54.577Z" fill="#02639A"/>
<path d="M373.713 44.8499C375.683 44.8499 377.28 43.2526 377.28 41.2824C377.28 39.3121 375.683 37.7148 373.713 37.7148C371.742 37.7148 370.145 39.3121 370.145 41.2824C370.145 43.2526 371.742 44.8499 373.713 44.8499Z" fill="#02639A"/>
<path d="M365.933 44.4998C367.903 44.4998 369.5 42.9026 369.5 40.9323C369.5 38.962 367.903 37.3647 365.933 37.3647C363.962 37.3647 362.365 38.962 362.365 40.9323C362.365 42.9026 363.962 44.4998 365.933 44.4998Z" fill="#02639A"/>
<path d="M371.695 53.8299C373.665 53.8299 375.262 52.2326 375.262 50.2623C375.262 48.292 373.665 46.6948 371.695 46.6948C369.725 46.6948 368.127 48.292 368.127 50.2623C368.127 52.2326 369.725 53.8299 371.695 53.8299Z" fill="#48C4DA"/>
<path d="M364.107 51.0096C366.078 51.0096 367.675 49.4124 367.675 47.4421C367.675 45.4718 366.078 43.8745 364.107 43.8745C362.137 43.8745 360.54 45.4718 360.54 47.4421C360.54 49.4124 362.137 51.0096 364.107 51.0096Z" fill="#48C4DA"/>
<path d="M369.5 44.8499C371.47 44.8499 373.068 43.2526 373.068 41.2824C373.068 39.3121 371.47 37.7148 369.5 37.7148C367.53 37.7148 365.933 39.3121 365.933 41.2824C365.933 43.2526 367.53 44.8499 369.5 44.8499Z" fill="#48C4DA"/>
<path d="M369.5 63.4976C379.782 63.4976 388.116 55.1627 388.116 44.8811C388.116 34.5996 379.782 26.2646 369.5 26.2646C359.218 26.2646 350.884 34.5996 350.884 44.8811C350.884 55.1627 359.218 63.4976 369.5 63.4976Z" stroke="#02639A" stroke-miterlimit="10"/>
<path d="M369.5 74C385.792 74 399 60.7924 399 44.5C399 28.2076 385.792 15 369.5 15C353.208 15 340 28.2076 340 44.5C340 60.7924 353.208 74 369.5 74Z" stroke="#02639A" stroke-miterlimit="10"/>
<path d="M371.695 29.8328C373.665 29.8328 375.262 28.2356 375.262 26.2653C375.262 24.295 373.665 22.6978 371.695 22.6978C369.725 22.6978 368.127 24.295 368.127 26.2653C368.127 28.2356 369.725 29.8328 371.695 29.8328Z" fill="#4E9BCE"/>
<path d="M350.888 25.3797C352.858 25.3797 354.455 23.7824 354.455 21.8121C354.455 19.8418 352.858 18.2446 350.888 18.2446C348.917 18.2446 347.32 19.8418 347.32 21.8121C347.32 23.7824 348.917 25.3797 350.888 25.3797Z" fill="#4E9BCE"/>
<path d="M345.357 65.4725C347.328 65.4725 348.925 63.8753 348.925 61.905C348.925 59.9347 347.328 58.3374 345.357 58.3374C343.387 58.3374 341.79 59.9347 341.79 61.905C341.79 63.8753 343.387 65.4725 345.357 65.4725Z" fill="#4E9BCE"/>
<path d="M390.496 69.0398C392.466 69.0398 394.064 67.4426 394.064 65.4723C394.064 63.502 392.466 61.9048 390.496 61.9048C388.526 61.9048 386.929 63.502 386.929 65.4723C386.929 67.4426 388.526 69.0398 390.496 69.0398Z" fill="#4E9BCE"/>
<path d="M394.064 31.1741C396.034 31.1741 397.631 29.5769 397.631 27.6066C397.631 25.6363 396.034 24.0391 394.064 24.0391C392.093 24.0391 390.496 25.6363 390.496 27.6066C390.496 29.5769 392.093 31.1741 394.064 31.1741Z" fill="#4E9BCE"/>
<path d="M368.127 67.0657C370.098 67.0657 371.695 65.4685 371.695 63.4982C371.695 61.5279 370.098 59.9307 368.127 59.9307C366.157 59.9307 364.56 61.5279 364.56 63.4982C364.56 65.4685 366.157 67.0657 368.127 67.0657Z" fill="#4E9BCE"/>
<circle cx="54" cy="35" r="7" fill="#FFDA55"/>
<circle cx="301" cy="274" r="23" fill="#FFDA55"/>
<path opacity="0.47" d="M16.6663 215.424L21.512 198.017C21.512 198.017 29.1865 181.308 65.9121 191.531C102.638 201.753 99.0405 222.273 99.0405 222.273L94.3819 239.022C94.3819 239.022 99.6698 213.933 61.9527 203.919C24.2416 193.909 16.6693 215.418 16.6693 215.418L16.6663 215.424Z" fill="#02639A"/>
<path d="M48.1536 253.353C69.7842 259.375 90.4605 252.973 94.3354 239.054C98.2103 225.135 83.8166 208.97 62.186 202.948C40.5554 196.927 19.8791 203.328 16.0042 217.247C12.1293 231.166 26.5231 247.331 48.1536 253.353Z" fill="#4E9BCE"/>
<path d="M20.5284 201.552L15.6952 218.499C14.5993 222.871 15.0141 244.261 48.2028 253.325C84.9736 263.368 93.7964 241.118 93.7964 241.118L99.0404 222.273C99.0404 222.273 89.595 250.094 52.1615 239.096C14.7219 228.094 20.5284 201.552 20.5284 201.552Z" fill="#02639A"/>
<path d="M44.7504 213.423C44.7312 211.963 43.7114 210.835 42.4262 210.476C41.6876 210.271 40.9425 210.333 40.1824 210.455C39.5125 210.562 38.8514 210.817 38.3611 211.345C38.2649 211.447 38.1926 211.561 38.1294 211.687C37.541 211.437 36.7627 211.655 36.4315 212.286C36.0732 212.97 36.2163 213.838 36.8586 214.236C37.8851 214.871 39.1222 215.206 40.3299 215.09C40.3629 215.084 40.3929 215.084 40.426 215.078C40.8126 215.745 41.5 216.113 42.2359 216.144C43.6296 216.197 44.7576 214.861 44.7444 213.419L44.7504 213.423Z" fill="#48C4DA"/>
<path d="M40.2832 216.471C38.6287 216.01 37.8533 218.769 39.5137 219.234C41.1742 219.698 41.9437 216.936 40.2832 216.471Z" fill="#48C4DA"/>
<path d="M45.9981 219.729C45.8213 219.422 45.5453 219.149 45.2 219.073C44.8637 218.994 44.5092 219.027 44.1966 219.216C44.1515 219.231 44.1064 219.246 44.0553 219.258C44.0163 219.261 43.9712 219.261 43.9352 219.258C43.8871 219.249 43.8421 219.234 43.797 219.218C43.761 219.2 43.725 219.182 43.701 219.155C43.656 219.11 43.611 219.065 43.569 219.014C43.452 218.873 43.305 218.776 43.1339 218.713C42.9748 218.626 42.8006 218.583 42.6144 218.595C42.29 218.598 41.9023 218.756 41.6677 219.014C41.4241 219.29 41.2314 219.66 41.2429 220.041L41.2844 220.408C41.3442 220.648 41.449 220.858 41.611 221.03C41.677 221.123 41.7491 221.204 41.8331 221.276C41.9951 221.418 42.16 221.568 42.3371 221.68C42.6133 221.848 42.9285 221.984 43.2498 222.047C43.4571 222.084 43.6732 222.117 43.8895 222.12C44.1058 222.123 44.3221 222.082 44.5354 222.046C44.6436 222.025 44.7517 222.004 44.8569 221.959C45.0613 221.881 45.2717 221.791 45.4671 221.671C45.7707 221.486 46.0204 221.153 46.114 220.801C46.2075 220.45 46.184 220.017 46.0102 219.72L45.9981 219.729Z" fill="#48C4DA"/>
<path d="M49.0159 215.63C48.5271 215.046 47.7765 214.775 47.0406 214.789C46.4579 214.798 45.8929 214.98 45.334 215.151C45.0065 215.249 44.6938 215.498 44.5131 215.813C44.4108 215.987 44.3445 216.21 44.3232 216.432C44.1577 216.672 44.0462 216.984 44.0488 217.264C44.0544 217.627 44.159 218.003 44.408 218.255C44.672 218.523 44.9902 218.652 45.3626 218.674C45.4437 218.677 45.5278 218.689 45.6149 218.695C46.0684 218.765 46.5098 218.889 46.9241 219.066C46.9721 219.09 47.0261 219.118 47.0741 219.142C47.4614 219.328 47.8458 219.431 48.2755 219.308C48.8975 219.132 49.3156 218.598 49.5266 217.982C49.807 217.154 49.5108 216.261 49.0039 215.654L49.0159 215.63Z" fill="#48C4DA"/>
<path d="M50.6205 212.775C50.3959 212.279 50.2043 211.747 49.9165 211.287C49.6707 210.894 49.4187 210.602 49.0647 210.319C48.7256 210.051 48.3082 209.94 47.8787 209.912C47.4793 209.885 47.0766 210.013 46.7189 210.202C46.3823 210.379 46.0574 210.697 45.8678 211.045C45.6209 211.507 45.5301 212.078 45.6586 212.586C45.7841 213.084 46.0751 213.448 46.4592 213.746C46.6182 213.864 46.8074 213.936 46.9875 214.011C47.0806 214.05 47.1736 214.074 47.2727 214.087C47.579 214.135 47.8914 214.156 48.1978 214.1C48.2158 214.139 48.2338 214.178 48.2457 214.214C48.3895 214.527 48.7316 214.788 49.0439 214.87C49.3562 214.951 49.7798 214.916 50.0654 214.721C50.363 214.517 50.6247 214.22 50.7123 213.851C50.7999 213.466 50.7643 213.118 50.6085 212.769L50.6205 212.775Z" fill="#48C4DA"/>
<path d="M74.0284 220.037C72.374 219.576 71.5985 222.335 73.259 222.8C74.9134 223.261 75.6889 220.502 74.0284 220.037Z" fill="#48C4DA"/>
<path d="M75.165 228.872L75.1589 228.884C75.204 228.854 75.2371 228.833 75.2522 228.818C75.2191 228.839 75.195 228.857 75.165 228.872Z" fill="#48C4DA"/>
<path d="M84.8025 225.088C84.8025 225.088 84.8144 225.109 84.8294 225.139C84.8144 225.109 84.7935 225.076 84.7726 225.043C84.7276 224.983 84.7036 224.926 84.7186 224.941C84.6766 224.86 84.6346 224.778 84.5927 224.697C84.5538 224.61 84.5209 224.526 84.4849 224.433L84.4609 224.376C84.2783 223.856 84.1228 223.312 83.8351 222.852C83.4034 222.155 82.8543 221.706 82.1218 221.399C81.5274 221.146 80.8666 221.1 80.2299 221.036C79.9145 221.006 79.5028 221.228 79.2832 221.456C79.2501 221.492 79.2171 221.543 79.181 221.585C79.2594 221.323 79.2777 221.047 79.2239 220.795C79.4224 220.609 79.5879 220.354 79.6483 220.098C79.8144 219.378 79.5119 218.722 78.9115 218.436C78.8695 218.415 78.8365 218.391 78.7975 218.364C78.7525 218.319 78.7105 218.268 78.6685 218.217C78.4527 217.868 78.2819 217.489 78.0871 217.129C77.7695 216.549 77.3467 215.968 76.7614 215.667C76.5512 215.562 76.317 215.474 76.0767 215.474C75.7823 215.477 75.5059 215.594 75.2683 215.782C74.8263 216.139 74.6244 216.722 74.7378 217.29C74.7945 217.581 74.8783 217.864 74.9771 218.146C74.8536 218.362 74.7692 218.605 74.7689 218.861C74.7774 219.248 74.9002 219.558 75.1281 219.852C75.5029 220.333 76.1363 220.659 76.758 220.707C76.6013 221.11 76.5857 221.575 76.7594 221.948C75.1259 221.534 74.3776 224.255 76.0261 224.713C77.2842 225.066 78.031 223.563 77.5907 222.613C78.1492 222.758 78.603 222.527 78.8949 222.155C78.8677 222.269 78.8435 222.377 78.8494 222.485C78.8549 222.849 78.9596 223.224 79.2086 223.477C79.2746 223.54 79.3436 223.597 79.4096 223.645C79.2954 223.678 79.1873 223.729 79.0821 223.789L78.8055 224.011C78.631 224.194 78.5075 224.41 78.4351 224.659C78.42 224.735 78.3929 224.804 78.3748 224.87C78.3477 224.924 78.3206 224.978 78.2875 225.029C78.2334 225.092 78.1792 225.155 78.1161 225.206C77.9748 225.338 77.8814 225.494 77.8211 225.674C77.7338 225.848 77.6855 226.034 77.6913 226.232C77.6852 226.305 77.6941 226.377 77.706 226.443C77.4899 226.289 77.2678 226.163 76.9946 226.048C76.6914 225.919 76.3821 225.876 76.0547 225.84C75.9806 225.104 75.4646 224.605 74.7557 224.565C73.9508 224.522 73.1457 224.524 72.3377 224.577C71.2893 224.644 70.6962 225.752 71.1245 226.726C71.4031 227.354 71.7868 227.937 72.2368 228.433C72.4827 228.707 72.7647 228.969 73.0618 229.185C73.683 229.64 74.4822 229.499 75.0476 228.987C75.0866 228.954 75.1197 228.918 75.1588 228.885C75.1377 228.897 75.1258 228.906 75.0957 228.921C75.1168 228.909 75.1408 228.891 75.1708 228.876L75.1798 228.858C75.252 228.804 75.2881 228.792 75.258 228.822C75.2911 228.801 75.3271 228.774 75.3602 228.753C75.3963 228.741 75.4264 228.726 75.4594 228.72C75.4955 228.708 75.5285 228.702 75.5646 228.69C75.6577 228.684 75.7418 228.681 75.8319 228.681C75.8649 228.69 75.907 228.696 75.94 228.705C75.97 228.72 75.9971 228.726 76.0301 228.735C76.1471 228.817 76.3752 228.976 76.1201 228.766C76.3962 228.994 76.6603 229.157 77.0328 229.148C77.3572 229.146 77.7449 228.987 77.9795 228.729C78.2231 228.453 78.4158 228.084 78.4043 227.702C78.4014 227.633 78.3954 227.555 78.3865 227.483C78.5786 227.579 78.7798 227.643 79.0051 227.643L79.3537 227.592C79.582 227.526 79.7804 227.4 79.9518 227.223C80.042 227.149 80.1232 227.062 80.1985 226.971C80.3489 226.791 80.4993 226.596 80.6167 226.392C80.7341 226.188 80.8275 225.957 80.9089 225.735C80.9149 225.723 80.9179 225.717 80.9239 225.705C81.0228 225.852 81.1278 225.987 81.2508 226.117C81.7727 226.664 82.4092 226.998 83.0756 227.303C83.3998 227.45 83.7391 227.568 84.1057 227.436C84.3882 227.337 84.6286 227.172 84.8152 226.92C85.2424 226.353 85.2013 225.626 84.7935 225.091L84.8025 225.088Z" fill="#48C4DA"/>
<path d="M84.7726 225.043C84.7726 225.043 84.7875 225.073 84.8025 225.088C84.7516 224.995 84.7216 224.949 84.7186 224.94C84.7306 224.961 84.7426 224.983 84.7485 225.001C84.7575 225.013 84.7666 225.025 84.7726 225.043Z" fill="#48C4DA"/>
<path d="M81.0773 227.826C79.4228 227.364 78.6474 230.124 80.3078 230.588C81.9623 231.05 82.7377 228.291 81.0773 227.826Z" fill="#48C4DA"/>
<path d="M87.6841 231.373C87.6785 231.009 87.5739 230.634 87.3249 230.381C87.0549 230.11 86.7486 229.987 86.3702 229.962C85.9407 229.935 85.5172 229.91 85.0877 229.883C86.0135 229.34 86.1899 227.595 84.9048 227.236C83.4095 226.817 82.6408 229.023 83.7241 229.8L83.5259 229.791C83.1745 229.742 82.8651 229.835 82.6215 230.021C82.5403 230.078 82.4651 230.138 82.405 230.198C82.1584 230.45 81.9716 230.867 81.9802 231.224C81.9859 231.453 82.0307 231.678 82.1236 231.882L82.1296 231.9C82.1535 231.958 82.1865 232.012 82.2225 232.06C82.2554 232.114 82.2914 232.162 82.3364 232.207L82.3544 232.216C82.4954 232.384 82.6875 232.511 82.9427 232.586C83.0598 232.622 83.1679 232.632 83.279 232.635C83.279 232.635 83.2911 232.641 83.2971 232.644L86.3156 232.828C86.637 232.846 87.0307 232.645 87.2623 232.408C87.5089 232.156 87.6957 231.739 87.6871 231.382L87.6841 231.373Z" fill="#48C4DA"/>
<path d="M50.569 234.765C50.4763 234.426 50.2815 234.08 49.9724 233.917C49.4921 233.661 49.0118 233.406 48.5315 233.15C48.3754 233.041 48.2073 232.987 48.021 232.984C47.8469 232.941 47.6757 232.953 47.4954 233.013C47.3572 233.049 47.24 233.118 47.1317 233.199L47.1378 233.157C47.1441 232.905 47.0873 232.673 46.9794 232.454C46.7996 232.138 46.5296 231.882 46.1813 231.798C46.0402 231.765 45.908 231.714 45.7699 231.659C45.5898 231.569 45.4188 231.461 45.2628 231.337C45.1067 231.229 44.9386 231.175 44.7523 231.171C44.5782 231.129 44.4069 231.141 44.2266 231.201C44.0523 231.249 43.8991 231.33 43.7668 231.459C43.6164 231.563 43.4961 231.699 43.4058 231.864C43.3546 231.981 43.3094 232.101 43.2582 232.218C43.1918 232.47 43.1824 232.713 43.2362 232.966L43.3619 233.299C43.4728 233.513 43.6318 233.69 43.8329 233.814C44.022 233.961 44.223 234.084 44.4391 234.193C44.7513 234.349 45.0756 234.482 45.4089 234.566C45.7512 234.648 46.1177 234.606 46.4303 234.418C46.4484 234.412 46.4574 234.393 46.4784 234.381C46.4722 234.514 46.4721 234.649 46.511 234.781C46.6037 235.121 46.7985 235.466 47.1076 235.629C47.5879 235.885 48.0682 236.141 48.5485 236.397C48.7046 236.505 48.8726 236.559 49.0589 236.562C49.233 236.605 49.4043 236.593 49.5846 236.533C49.7589 236.485 49.9121 236.404 50.0445 236.275C50.1948 236.17 50.3151 236.035 50.4054 235.87C50.5741 235.534 50.6767 235.135 50.575 234.768L50.569 234.765Z" fill="#48C4DA"/>
<path d="M53.1552 234.747C51.5008 234.286 50.7254 237.045 52.3859 237.51C54.0463 237.974 54.8157 235.212 53.1552 234.747Z" fill="#48C4DA"/>
<path d="M57.5744 231.839C57.806 231.602 57.9565 231.332 58.056 231.014C58.0802 230.936 58.0863 230.834 58.0954 230.77C58.1045 230.692 58.1256 230.605 58.1287 230.524C58.1259 230.41 58.108 230.236 58.0902 230.122C58.0872 230.098 58.0782 230.071 58.0693 230.044L57.9435 229.71L57.7427 229.421L57.4726 229.196C57.3166 229.087 57.1484 229.033 56.9622 229.03C56.8421 229 56.7309 228.997 56.6077 229.032C56.5327 229.032 56.4545 229.053 56.3884 229.08C56.3704 229.071 56.3584 229.05 56.3404 229.041C56.2114 228.909 56.0583 228.824 55.8811 228.788C56.1124 228.792 56.3467 228.789 56.581 228.816C56.8963 228.847 57.3081 228.625 57.5277 228.397C57.7743 228.145 57.9611 227.728 57.9525 227.37C57.947 227.007 57.8423 226.631 57.5933 226.378L57.3232 226.153C57.1101 226.023 56.8849 225.963 56.6386 225.96C56.059 225.902 55.4732 225.916 54.8845 225.967C54.8576 225.84 54.8247 225.726 54.7677 225.615C54.6869 225.447 54.5789 225.317 54.4348 225.215C54.3058 225.083 54.1527 224.998 53.9696 224.959C53.6333 224.881 53.2548 224.901 52.9481 225.108C52.6445 225.309 52.3978 225.606 52.3012 225.978C52.2982 225.984 52.2922 225.996 52.2892 226.002C52.2681 226.044 52.244 226.092 52.2169 226.131C52.1959 226.158 52.1688 226.182 52.1418 226.206C52.1117 226.221 52.0846 226.245 52.0545 226.26C52.0004 226.278 51.9524 226.299 51.8953 226.308C51.8773 226.314 51.8592 226.32 51.8442 226.32C51.8382 226.317 51.8262 226.326 51.8172 226.329L51.8232 226.332C51.7631 226.347 51.694 226.365 51.6309 226.401C51.4656 226.461 51.3183 226.56 51.189 226.698C51.0476 226.83 50.9543 226.986 50.894 227.166C50.8067 227.34 50.7584 227.526 50.7641 227.724C50.7697 228.088 50.8743 228.464 51.1233 228.716L51.3934 228.942C51.6065 229.071 51.8317 229.132 52.078 229.135C52.1682 229.12 52.2552 229.111 52.3454 229.096C52.6215 229.25 52.9429 229.298 53.2704 229.184C53.7092 229.029 54.1538 228.921 54.6105 228.835C54.7787 228.814 54.9469 228.808 55.1122 228.793C55.022 228.823 54.9349 228.862 54.8537 228.919C54.6523 229.051 54.4779 229.234 54.3484 229.447C54.2374 229.354 54.1083 229.282 53.9582 229.251C53.838 229.236 53.7179 229.221 53.6038 229.209C53.3695 229.212 53.1471 229.28 52.9337 229.406L52.6571 229.628C52.4827 229.811 52.3592 230.027 52.2868 230.277L52.1088 230.916C51.8596 230.874 51.6013 230.834 51.352 230.792C50.9767 230.732 50.5892 230.68 50.2229 230.571C50.2229 230.571 50.2229 230.571 50.2169 230.568L50.2109 230.55L50.175 230.472L50.16 230.442L50.154 230.424C50.1301 230.352 50.1061 230.28 50.0822 230.208C50.0074 229.982 49.9325 229.757 49.8367 229.544C49.669 229.144 49.3871 228.777 49.039 228.542C48.1506 227.946 47.111 228.222 46.2692 228.836C45.6799 229.262 45.3305 230.109 45.7261 230.788C46.0768 231.392 46.9173 231.754 47.5457 231.295C47.5487 231.289 47.5667 231.283 47.5697 231.277C47.6266 231.448 47.6835 231.619 47.7524 231.782C47.8811 232.109 48.0699 232.422 48.3159 232.666C48.9759 233.327 49.8469 233.433 50.7178 233.57C51.5527 233.703 52.3845 233.842 53.2254 233.978C53.9131 234.09 54.7094 233.761 54.8967 232.953C54.9269 232.818 54.9301 232.677 54.9273 232.533C54.9721 232.713 55.062 232.863 55.185 232.993C55.302 233.134 55.4491 233.23 55.6202 233.293C55.7793 233.381 55.9535 233.423 56.1397 233.411C56.4822 233.388 56.8427 233.268 57.0864 232.992L57.309 232.698C57.4174 232.512 57.4687 232.305 57.4899 232.097C57.5081 232.001 57.5232 231.911 57.5474 231.818L57.5744 231.839Z" fill="#48C4DA"/>
<path d="M63.3184 231.083C63.3307 230.894 63.2948 230.711 63.2169 230.552C63.1691 230.377 63.0822 230.221 62.9562 230.098C62.7912 229.917 62.5901 229.794 62.3589 229.731C62.0646 229.643 61.7704 229.556 61.4791 229.462C61.305 229.405 61.1278 229.399 60.9475 229.443C60.7703 229.452 60.605 229.512 60.4547 229.617C60.3525 229.671 60.2683 229.749 60.1901 229.83C60.0731 229.749 59.938 229.673 59.7818 229.625C58.1274 229.163 57.352 231.923 59.0124 232.388C59.5529 232.538 59.9947 232.347 60.2955 232.002C60.3705 232.062 60.4546 232.104 60.5387 232.146L60.6045 232.239C60.7695 232.42 60.9706 232.543 61.2018 232.607C61.2199 232.616 61.2379 232.625 61.2679 232.625C61.379 232.643 61.5262 232.664 61.6343 232.673C61.6463 232.679 61.6553 232.676 61.6643 232.673C61.6854 232.676 61.7034 232.67 61.7274 232.667C61.8476 232.652 61.9768 232.635 62.094 232.611C62.103 232.608 62.112 232.605 62.127 232.605C62.127 232.605 62.145 232.599 62.1541 232.596C62.2592 232.551 62.3914 232.497 62.4936 232.443C62.5117 232.437 62.5267 232.422 62.5478 232.41C62.641 232.344 62.7552 232.251 62.8454 232.176C62.8515 232.164 62.8605 232.161 62.8725 232.152C62.8755 232.146 62.8816 232.134 62.8906 232.131C62.9748 232.038 63.053 231.912 63.1312 231.816C63.2607 231.588 63.3301 231.345 63.3334 231.083L63.3184 231.083Z" fill="#48C4DA"/>
<path d="M64.0343 235.019C64.0285 234.836 63.9807 234.662 63.8908 234.496L63.6899 234.208C63.5249 234.027 63.3238 233.904 63.0926 233.841C62.9725 233.826 62.8523 233.81 62.7382 233.798C62.5039 233.801 62.2815 233.87 62.0681 233.996L61.9268 234.083C61.7675 234.175 61.6383 234.298 61.539 234.452C61.4818 234.521 61.4306 234.593 61.3915 234.671C61.3735 234.601 61.3586 234.526 61.3227 234.463C61.2748 234.289 61.1879 234.133 61.0619 234.009C60.8129 233.757 60.4707 233.57 60.1072 233.591L59.7588 233.641C59.5995 233.689 59.4492 233.779 59.3169 233.878C59.2838 233.899 59.2508 233.92 59.2207 233.935L59.1967 233.938C59.1666 233.923 59.1307 233.905 59.1037 233.884C58.9476 233.775 58.7794 233.721 58.5932 233.718C58.4191 233.676 58.2478 233.687 58.0675 233.747C57.8932 233.795 57.74 233.876 57.6076 234.005C57.4573 234.11 57.337 234.245 57.2467 234.41C57.0781 234.746 56.9754 235.146 57.0771 235.512L57.2028 235.846C57.3137 236.059 57.4727 236.237 57.6738 236.36C57.7398 236.408 57.8058 236.456 57.8779 236.492C58.046 236.577 58.2261 236.667 58.4123 236.715C58.5954 236.77 58.7966 236.788 58.9828 236.806C59.0609 236.815 59.142 236.818 59.2291 236.81C59.4935 236.792 59.7759 236.753 60.0253 236.645C60.1966 236.573 60.3739 236.505 60.5333 236.397C60.6986 236.292 60.8549 236.16 60.9993 236.022C61.1166 235.908 61.2008 235.77 61.2611 235.62C61.2789 235.764 61.3148 235.902 61.3868 236.028L61.5876 236.317C61.7526 236.497 61.9537 236.621 62.1849 236.684L62.5393 236.727C62.7736 236.724 62.996 236.655 63.2094 236.529L63.3507 236.442C63.51 236.349 63.6393 236.226 63.7386 236.073C63.862 235.932 63.9522 235.767 63.9975 235.572C64.0549 235.383 64.0671 235.194 64.0313 235.01L64.0343 235.019Z" fill="#48C4DA"/>
<path d="M63.0339 237.583C62.854 237.268 62.584 237.012 62.2357 236.927C61.1337 236.653 59.98 236.825 58.958 237.395C58.6544 237.566 58.4047 237.929 58.3112 238.265C58.3022 238.283 58.3021 238.313 58.2991 238.334C58.2751 238.247 58.2452 238.157 58.2033 238.076L57.451 236.684C57.3702 236.516 57.2622 236.387 57.1182 236.284C56.9892 236.152 56.8361 236.068 56.6529 236.028C56.4788 235.971 56.3015 235.965 56.1213 236.01C55.944 236.018 55.7788 236.078 55.6284 236.183C55.5382 236.258 55.442 236.33 55.3518 236.405C55.1774 236.588 55.054 236.804 54.9816 237.053L54.927 237.432C54.9207 237.684 54.9775 237.916 55.0854 238.135L55.8375 239.527C55.9184 239.695 56.0264 239.824 56.1705 239.927C56.2995 240.059 56.4525 240.143 56.6357 240.182C56.8098 240.24 56.987 240.246 57.1673 240.201C57.3445 240.192 57.5098 240.132 57.6601 240.028L57.9367 239.806C58.1112 239.623 58.2346 239.406 58.307 239.157L58.3131 239.1C58.337 239.187 58.37 239.271 58.415 239.347C58.5918 239.653 58.8678 239.927 59.2131 240.002C59.5644 240.081 59.9039 240.033 60.2346 239.854C60.2586 239.836 60.2857 239.827 60.3127 239.818C60.472 239.755 60.6403 239.704 60.8085 239.668C60.9828 239.65 61.1569 239.647 61.3311 239.66C61.3792 239.669 61.4212 239.675 61.4693 239.684C61.8086 239.771 62.1781 239.724 62.4907 239.535C62.7823 239.358 63.0621 239.01 63.1376 238.665C63.2222 238.301 63.2197 237.902 63.0339 237.583Z" fill="#48C4DA"/>
</svg>
