<svg width="445" height="305" viewBox="0 0 445 305" fill="none" xmlns="http://www.w3.org/2000/svg">
<path d="M92.1316 43.8226C54.8241 54.3447 14.2488 77.4933 7.16861 106.487C0.0883484 135.482 26.5031 170.321 50.7394 206.564C74.9756 242.573 97.0333 279.751 127.261 282.791C157.488 285.83 195.885 254.966 246.808 243.274C297.459 231.583 360.637 239.299 384.056 219.892C407.475 200.485 391.408 153.72 378.609 109.527C365.811 65.1006 356.007 23.0123 326.325 11.5549C296.37 0.0975828 246.536 19.2711 204.599 27.6888C162.934 36.1065 129.167 33.5344 92.1316 43.8226Z" fill="#FFDA55"/>
<circle cx="36" cy="43" r="7" fill="#FFDA55"/>
<circle cx="283" cy="282" r="23" fill="#FFDA55"/>
<path d="M102.742 249.436L69.1062 252.764C60.9328 253.572 54.2443 259.608 52.5976 267.654C50.712 276.875 42.2733 283.27 32.8824 282.583L13.2939 281.156" stroke="#48C4DA" stroke-width="4.04" stroke-miterlimit="10"/>
<path d="M131.103 236.523C139.01 231.443 141.301 220.917 136.222 213.012C131.143 205.107 120.616 202.817 112.71 207.897L75.9051 231.546C67.9989 236.626 65.7071 247.153 70.7863 255.057C75.8654 262.962 86.3921 265.252 94.2982 260.172L131.103 236.523Z" fill="#48C4DA"/>
<path d="M122.291 227.303C123.333 230.794 127.007 232.779 130.497 231.738C133.988 230.696 135.974 227.022 134.932 223.531C133.891 220.041 130.217 218.055 126.726 219.097C123.235 220.138 121.25 223.812 122.291 227.303Z" fill="#02639A"/>
<path d="M73.3588 244.305C74.1354 246.908 76.875 248.388 79.478 247.612C82.0809 246.835 83.5615 244.096 82.7849 241.493C82.0083 238.89 79.2687 237.409 76.6657 238.186C74.0628 238.962 72.5822 241.702 73.3588 244.305Z" fill="#0D74BA"/>
<path d="M110.199 217.709C110.975 220.312 113.715 221.792 116.318 221.016C118.921 220.239 120.402 217.5 119.625 214.897C118.848 212.294 116.109 210.813 113.506 211.59C110.903 212.366 109.422 215.106 110.199 217.709Z" fill="#0D74BA"/>
<path d="M87.5697 250.864C88.1773 252.9 90.3208 254.059 92.3573 253.451C94.3938 252.843 95.5522 250.7 94.9446 248.663C94.337 246.627 92.1935 245.468 90.157 246.076C88.1205 246.684 86.9621 248.827 87.5697 250.864Z" fill="#0D74BA"/>
<path d="M107.389 242.359C107.996 244.396 110.14 245.554 112.176 244.947C114.213 244.339 115.371 242.195 114.763 240.159C114.156 238.122 112.012 236.964 109.976 237.572C107.939 238.179 106.781 240.323 107.389 242.359Z" fill="#0D74BA"/>
<path d="M91.5272 238.828C92.1348 240.865 94.2783 242.023 96.3149 241.415C98.3514 240.808 99.5098 238.664 98.9022 236.628C98.2946 234.591 96.1511 233.433 94.1145 234.04C92.078 234.648 90.9196 236.791 91.5272 238.828Z" fill="#02639A"/>
<path d="M97.8903 227.831C98.6906 230.514 101.514 232.04 104.196 231.239C106.879 230.439 108.405 227.616 107.604 224.933C106.804 222.251 103.981 220.725 101.298 221.525C98.6158 222.326 97.0899 225.149 97.8903 227.831Z" fill="#02639A"/>
<path d="M187.571 49.8539L187.356 165.536" stroke="#02639A" stroke-width="2.51" stroke-miterlimit="10"/>
<path d="M206.428 49.8879C206.391 72.11 187.489 90.0907 187.489 90.0907C187.489 90.0907 168.657 72.0356 168.705 49.8215C168.741 27.5994 187.644 9.61872 187.644 9.61872C187.644 9.61872 206.475 27.6738 206.428 49.8879Z" fill="#0D74BA"/>
<path d="M146.997 87.2388L187.422 127.813" stroke="#02639A" stroke-width="2.51" stroke-miterlimit="10"/>
<path d="M170.57 110.9C170.57 110.9 148.928 111.367 135.9 98.2851C122.876 85.2231 123.413 63.5697 123.413 63.5697C123.413 63.5697 145.067 63.1105 158.083 76.1842C171.108 89.2561 170.57 110.9 170.57 110.9Z" fill="#0D74BA"/>
<path d="M228.007 87.3866L187.422 127.813" stroke="#02639A" stroke-width="2.51" stroke-miterlimit="10"/>
<path d="M239.061 98.472C226.178 111.311 204.979 110.975 204.346 110.959L204.336 110.961C204.336 110.961 203.888 89.3155 216.95 76.2915C230.022 63.2657 251.676 63.8028 251.676 63.8028C251.676 63.8028 252.125 85.4578 239.061 98.472Z" fill="#0D74BA"/>
<path d="M208.123 187.984L166.503 187.901L158.488 133.026L216.338 133.127L208.123 187.984Z" fill="#49C5DB"/>
<path d="M206.428 49.8879C206.391 72.1101 187.489 90.0908 187.489 90.0908L187.632 9.61072C187.632 9.61072 206.464 27.6658 206.416 49.8799L206.428 49.8879Z" fill="#02639A"/>
<path d="M239.061 98.4719C226.178 111.31 204.979 110.975 204.346 110.959L251.676 63.8027C251.676 63.8027 252.125 85.4577 239.061 98.4719Z" fill="#02639A"/>
<path d="M170.569 110.9L123.413 63.5698C123.413 63.5698 145.067 63.1106 158.083 76.1843C171.108 89.2562 170.569 110.9 170.569 110.9Z" fill="#02639A"/>
<path d="M419.407 120.393C416.379 127.314 410.606 132.188 403.924 134.298C399.98 135.545 396.793 138.469 395.133 142.262L394.225 144.341C393.28 146.506 390.755 147.495 388.59 146.544L375.006 140.599C372.841 139.654 371.852 137.129 372.804 134.963L373.724 132.858C375.378 129.085 375.37 124.769 373.609 121.047C370.6 114.663 370.273 107.056 373.366 100.094C378.998 87.3989 393.732 81.6859 406.458 87.2578C419.192 92.8295 424.992 107.666 419.414 120.399L419.407 120.393Z" fill="#48C4DA"/>
<path d="M377.749 139.913L392.96 105.174C394.079 102.623 392.915 99.643 390.358 98.5237L388.053 97.5164C385.502 96.3969 382.522 97.5613 381.402 100.119L380.258 102.736C379.139 105.286 380.303 108.267 382.86 109.386L394.411 114.442L394.524 114.491L406.075 119.547C408.626 120.667 411.606 119.502 412.725 116.945L413.87 114.328C414.989 111.777 413.825 108.797 411.267 107.677L408.963 106.67C406.412 105.551 403.431 106.715 402.312 109.272L387.101 144.011" stroke="white" stroke-width="1.59" stroke-miterlimit="10"/>
<path d="M395.641 145.272L387.706 163.392C386.419 166.335 382.99 167.674 380.054 166.387L366.205 160.324C363.262 159.037 361.922 155.607 363.21 152.671L371.145 134.551L395.641 145.278L395.641 145.272Z" fill="#02639A"/>
<path d="M408.28 83.0801L415.338 66.9527" stroke="#02639A" stroke-width="2.51" stroke-miterlimit="10"/>
<path d="M393.045 80.7701L391.101 63.269" stroke="#02639A" stroke-width="2.51" stroke-miterlimit="10"/>
<path d="M378.703 86.3747L368.267 72.1982" stroke="#02639A" stroke-width="2.51" stroke-miterlimit="10"/>
<path d="M424.42 148.488L413.983 134.312" stroke="#02639A" stroke-width="2.51" stroke-miterlimit="10"/>
<path d="M369.08 98.4068L352.953 91.3489" stroke="#02639A" stroke-width="2.51" stroke-miterlimit="10"/>
<path d="M439.728 129.338L423.6 122.28" stroke="#02639A" stroke-width="2.51" stroke-miterlimit="10"/>
<path d="M366.77 113.635L349.269 115.586" stroke="#02639A" stroke-width="2.51" stroke-miterlimit="10"/>
<path d="M443.418 105.101L425.917 107.052" stroke="#02639A" stroke-width="2.51" stroke-miterlimit="10"/>
<path d="M434.488 82.2669L420.305 92.7035" stroke="#02639A" stroke-width="2.51" stroke-miterlimit="10"/>
</svg>
