<svg width="113" height="113" viewBox="0 0 113 113" fill="none" xmlns="http://www.w3.org/2000/svg">
  <path d="M56.5 6.448v100.104M31.474 13.154l50.052 86.692M13.154 31.474l86.692 50.052M6.448 56.5h100.104M13.154 81.526l86.692-50.052M31.474 99.846l50.052-86.692" stroke="#02639A" stroke-width="4.27" stroke-miterlimit="10"/>
  <path d="M56.5 12.896A6.448 6.448 0 1 0 56.5 0a6.448 6.448 0 0 0 0 12.896ZM56.5 113a6.448 6.448 0 1 0 0-12.896 6.448 6.448 0 0 0 0 12.896ZM31.474 19.602a6.448 6.448 0 1 0 0-12.896 6.448 6.448 0 0 0 0 12.896ZM81.526 106.294a6.448 6.448 0 1 0 0-12.896 6.448 6.448 0 0 0 0 12.896ZM13.154 37.922a6.448 6.448 0 1 0 0-12.896 6.448 6.448 0 0 0 0 12.896ZM99.846 87.974a6.448 6.448 0 1 0 0-12.896 6.448 6.448 0 0 0 0 12.896ZM6.448 62.948a6.448 6.448 0 1 0 0-12.896 6.448 6.448 0 0 0 0 12.896ZM106.552 62.948a6.448 6.448 0 1 0 0-12.896 6.448 6.448 0 0 0 0 12.896ZM13.154 87.974a6.448 6.448 0 1 0 0-12.896 6.448 6.448 0 0 0 0 12.896ZM99.846 37.922a6.448 6.448 0 1 0 0-12.896 6.448 6.448 0 0 0 0 12.896ZM31.474 106.294a6.448 6.448 0 1 0 0-12.896 6.448 6.448 0 0 0 0 12.896ZM81.526 19.602a6.448 6.448 0 1 0 0-12.896 6.448 6.448 0 0 0 0 12.896ZM56.5 88.443c18.065 0 32.709-14.644 32.709-32.709 0-18.065-14.644-32.709-32.709-32.709-18.065 0-32.709 14.644-32.709 32.709 0 18.065 14.644 32.709 32.709 32.709Z" fill="#0D74BA"/>
  <path d="M45.69 47.012a7.769 7.769 0 1 0 0-15.538 7.769 7.769 0 0 0 0 15.538ZM45.813 73.722c2.765-1.79 2.745-6.733-.044-11.041-2.79-4.309-7.292-6.35-10.057-4.56-2.764 1.79-2.744 6.733.045 11.041 2.79 4.309 7.291 6.35 10.056 4.56ZM62.948 76.11a4.174 4.174 0 1 0 0-8.348 4.174 4.174 0 0 0 0 8.348ZM69.146 42.096a4.174 4.174 0 1 0 0-8.348 4.174 4.174 0 0 0 0 8.348ZM69.904 61.697c5.132 0 9.293-2.67 9.293-5.963 0-3.294-4.16-5.964-9.293-5.964-5.133 0-9.293 2.67-9.293 5.964 0 3.293 4.16 5.963 9.293 5.963Z" fill="#48C4DA"/>
</svg>
