<svg width="66" height="50" viewBox="0 0 66 50" fill="none" xmlns="http://www.w3.org/2000/svg">
  <path d="M45.723.276 8.033 5.499a2.012 2.012 0 0 0-1.717 2.27L9.908 33.69a2.012 2.012 0 0 0 2.27 1.717l37.69-5.224a2.012 2.012 0 0 0 1.716-2.269L47.991 1.993A2.012 2.012 0 0 0 45.724.276Z" stroke="#0C426F" stroke-width="1.663" stroke-miterlimit="10"/>
  <path d="M63.95 38.925 1.895 47.521c-1.218.17-1.268-1.072-.108-2.772l5.27-7.724c1.16-1.7 2.74-3.163 3.525-3.275l40.087-5.553c.786-.108 2.823.856 4.544 2.157l7.823 5.907c1.72 1.3 2.128 2.49.91 2.66l.004.004ZM64.866 39.229.957 48.086a.453.453 0 0 0-.386.51l.051.375a.453.453 0 0 0 .511.387l63.91-8.857a.453.453 0 0 0 .386-.51l-.052-.375a.453.453 0 0 0-.51-.387Z" fill="#0C426F"/>
  <path d="M37.846 41.278 26.27 42.883c-.324.045-.337-.283-.03-.732l.703-1.03c.308-.45.724-.836.931-.866l7.478-1.035c.208-.029.749.23 1.202.57l1.047.79c.457.345.565.66.241.702l.004-.004ZM56.027 35.325l-48.579 6.73c-.71.1-.873-.528-.357-1.397l1.795-3.042c.516-.869 1.405-1.642 1.996-1.721l40.166-5.562c.586-.083 1.658.42 2.386 1.114l2.556 2.44c.731.699.748 1.343.037 1.443v-.005Z" fill="#0082EF"/>
</svg>
