<svg width="342" height="227" viewBox="0 0 342 227" fill="none" xmlns="http://www.w3.org/2000/svg">
<path d="M255.254 44.3594C280.699 51.5144 308.374 67.2554 313.203 86.9714C318.032 106.687 300.016 130.378 283.485 155.024C266.955 179.51 251.911 204.791 231.294 206.858C210.678 208.925 184.489 187.937 149.757 179.987C115.21 172.037 72.1197 177.284 56.1466 164.087C40.1734 150.889 51.1317 119.089 59.8612 89.0384C68.5908 58.8284 75.2772 30.2084 95.5223 22.4174C115.953 14.6264 149.942 27.6644 178.546 33.3884C206.963 39.1124 229.994 37.3634 255.254 44.3594Z" fill="#3D9EEE"/>
<ellipse cx="66.7795" cy="20.7782" rx="5.77949" ry="5.77818" fill="#2E98F1"/>
<circle cx="277" cy="213" r="10" fill="#2E98F1"/>
<path d="M56.0113 128.867C58.2458 133.877 58.039 139.359 55.9041 143.979C54.645 146.707 54.6564 149.847 55.8805 152.593L56.5526 154.097C57.2528 155.663 56.5491 157.502 54.9793 158.199L45.1455 162.586C43.5793 163.287 41.7404 162.583 41.0433 161.014L40.363 159.49C39.1466 156.757 36.8254 154.651 33.9666 153.778C29.0678 152.272 24.8247 148.729 22.5998 143.664C18.5387 134.433 22.6768 123.729 31.8914 119.62C41.109 115.507 51.9103 119.646 56.018 128.867L56.0113 128.867Z" fill="#9ECEF7"/>
<path d="M46.1187 160.778L34.9083 135.627C34.0865 133.779 31.9171 132.947 30.0657 133.773L28.3978 134.518C26.5495 135.341 25.7172 137.51 26.5426 139.361L27.388 141.255C28.2099 143.103 30.3792 143.935 32.2306 143.109L40.5931 139.379L40.6751 139.343L49.0375 135.612C50.8858 134.79 51.7181 132.621 50.8927 130.769L50.0473 128.876C49.2255 127.027 47.0562 126.196 45.2048 127.021L43.537 127.766C41.6887 128.589 40.8563 130.758 41.6817 132.609L52.8921 157.761" stroke="white" stroke-width="1.59" stroke-miterlimit="10"/>
<path d="M57.7446 153.792L63.5915 166.911C64.5417 169.041 63.584 171.537 61.4572 172.484L51.43 176.956C49.3001 177.907 46.8039 176.949 45.8574 174.823L40.0104 161.703L57.7482 153.795L57.7446 153.792Z" fill="#02639A"/>
<path d="M30.5395 116.6L25.3335 104.925" stroke="#02639A" stroke-width="2.51" stroke-miterlimit="10"/>
<path d="M21.8496 123.65L11.5039 116.138" stroke="#02639A" stroke-width="2.51" stroke-miterlimit="10"/>
<path d="M17.8446 134.091L5.13086 132.764" stroke="#02639A" stroke-width="2.51" stroke-miterlimit="10"/>
<path d="M73.5438 139.912L60.8301 138.584" stroke="#02639A" stroke-width="2.51" stroke-miterlimit="10"/>
<path d="M19.5983 145.141L7.92285 150.35" stroke="#02639A" stroke-width="2.51" stroke-miterlimit="10"/>
<path d="M70.7496 122.33L59.0742 127.539" stroke="#02639A" stroke-width="2.51" stroke-miterlimit="10"/>
<path d="M26.6432 153.826L19.1325 164.177" stroke="#02639A" stroke-width="2.51" stroke-miterlimit="10"/>
<path d="M59.5437 108.499L52.0328 118.85" stroke="#02639A" stroke-width="2.51" stroke-miterlimit="10"/>
<path d="M42.9196 102.13L41.5865 114.848" stroke="#02639A" stroke-width="2.51" stroke-miterlimit="10"/>
<path opacity="0.5" d="M205.255 55.9878L134.22 50.5901C132.145 50.4325 130.342 51.9091 130.192 53.8882L126.649 100.504C126.499 102.483 128.059 104.216 130.133 104.373L201.168 109.771C203.243 109.929 205.046 108.452 205.197 106.473L208.739 59.8568C208.889 57.8776 207.33 56.1455 205.255 55.9878Z" fill="white"/>
<path d="M205.292 55.5235L134.257 50.1257C132.183 49.9681 130.373 51.5219 130.216 53.5962L126.503 102.453C126.345 104.528 127.899 106.337 129.974 106.495L201.009 111.892C203.083 112.05 204.893 110.496 205.05 108.422L208.763 59.5647C208.92 57.4904 207.367 55.6811 205.292 55.5235Z" stroke="#02639A" stroke-width="3.11297" stroke-miterlimit="10"/>
<path d="M223.309 133.474L106.353 124.579C104.057 124.408 104.459 122.114 107.255 119.464L119.964 107.424C122.76 104.773 126.231 102.723 127.713 102.829L203.265 108.574C204.746 108.688 208.09 111.261 210.722 114.324L222.693 128.236C225.325 131.299 225.599 133.636 223.303 133.464L223.309 133.474Z" fill="#02639A"/>
<path d="M224.865 134.392L104.413 125.24C103.946 125.204 103.539 125.554 103.503 126.021L103.449 126.727C103.414 127.194 103.764 127.602 104.231 127.637L224.683 136.79C225.15 136.826 225.557 136.476 225.593 136.009L225.646 135.302C225.682 134.835 225.332 134.428 224.865 134.392Z" fill="#02639A"/>
<path opacity="0.5" d="M174.612 127.421L152.794 125.763C152.182 125.718 152.29 125.112 153.031 124.413L154.725 122.805C155.466 122.106 156.38 121.564 156.772 121.593L170.865 122.666C171.257 122.695 172.144 123.381 172.837 124.185L174.44 126.046C175.14 126.858 175.213 127.479 174.603 127.427L174.612 127.421Z" fill="white"/>
<path opacity="0.5" d="M210.241 123.744L118.684 116.782C117.344 116.682 117.296 115.469 118.584 114.084L123.077 109.229C124.365 107.844 126.299 106.783 127.411 106.872L203.111 112.633C204.216 112.714 205.979 114.059 207.034 115.618L210.744 121.097C211.805 122.665 211.58 123.851 210.24 123.751L210.241 123.744Z" fill="white"/>
<path d="M319.938 100.499L280.885 148.071" stroke="#02639A" stroke-width="2.51" stroke-miterlimit="10"/>
<path d="M321.126 141.731C319.266 143.998 317.121 145.881 314.776 147.373C309.089 150.997 302.271 152.328 295.728 151.233C291.245 150.474 286.88 148.569 283.111 145.472C276.087 139.706 272.722 131.136 273.306 122.724C273.679 117.31 275.67 111.969 279.37 107.456C288.305 96.5741 303.955 94.4745 315.383 102.221C316.063 102.681 316.737 103.184 317.386 103.716C328.921 113.182 330.593 130.2 321.126 141.731Z" fill="#9ECEF7"/>
<path d="M321.127 141.731C319.266 143.998 317.122 145.881 314.777 147.373C321.519 133.614 310.491 127.533 310.491 127.533L310.515 127.494C310.353 127.383 310.186 127.277 310.027 127.156C306.7 124.554 306.071 119.621 308.633 116.26L308.659 116.23C309.95 114.556 310.505 112.421 310.02 110.359C309.52 108.289 309.898 106.133 311.243 104.496C312.295 103.218 313.772 102.45 315.388 102.221C316.068 102.681 316.742 103.183 317.391 103.715C328.926 113.182 330.598 130.2 321.131 141.731L321.127 141.731Z" fill="#02639A"/>
<path d="M295.728 151.229C291.245 150.47 286.88 148.564 283.111 145.467C276.087 139.701 272.722 131.132 273.306 122.719C274.452 123.264 275.548 123.604 276.578 123.774C279.687 124.291 281.733 122.032 281.686 118.884C281.684 118.75 281.724 118.63 281.751 118.512C281.751 118.512 281.754 113.854 284.726 109.771C285.181 109.143 285.62 108.701 286.048 108.4C286.318 108.2 286.58 108.062 286.84 107.969C288.53 107.359 290.081 109.254 289.242 110.847C288.935 111.421 288.425 112.221 288.031 113.122C287.716 113.817 287.481 114.579 287.456 115.36C287.444 115.755 287.487 116.14 287.595 116.529C287.849 117.42 288.838 117.928 289.671 117.535C289.685 117.534 289.693 117.524 289.702 117.523C291.671 116.555 293.758 116.507 295.185 117.681C297.347 119.458 297.142 123.277 294.724 126.222C294.64 126.326 289.454 133.142 292.601 139.056C295.107 143.774 296.322 147.242 295.738 151.232L295.728 151.229Z" fill="#02639A"/>
<path d="M310.506 127.504L310.486 127.533C310.486 127.533 310.515 127.549 310.563 127.577C310.543 127.551 310.527 127.525 310.506 127.504Z" fill="#42BA1A"/>
<path d="M316.523 98.0617C317.698 98.789 318.839 99.5982 319.938 100.499C333.076 111.281 334.982 130.675 324.195 143.809C313.413 156.948 294.019 158.854 280.885 148.067C279.776 147.153 278.746 146.181 277.794 145.156" stroke="#02639A" stroke-width="4.27" stroke-miterlimit="10"/>
<path d="M290.187 153.065L286.431 163.436" stroke="#02639A" stroke-width="4.27" stroke-miterlimit="10"/>
<path d="M278.981 160.126L294.272 165.659" stroke="#02639A" stroke-width="4.27" stroke-miterlimit="10"/>
</svg>
