<svg width="70" height="50" viewBox="0 0 70 50" fill="none" xmlns="http://www.w3.org/2000/svg">
  <path d="m25.287 7.01-1.982 24.744c-.157 1.953 1.444 3.674 3.571 3.844 2.132.17 3.982-1.274 4.139-3.224l1.982-24.743" fill="#0082EF"/>
  <path d="M26.84 36.025a4.3 4.3 0 0 1-3.94-4.627l2.164-26.99.856.07-2.164 26.99a3.442 3.442 0 0 0 3.153 3.704 3.443 3.443 0 0 0 3.704-3.153l2.165-26.991.856.07-2.164 26.99a4.3 4.3 0 0 1-4.627 3.94l-.004-.003Z" fill="#0C426F"/>
  <path d="m25.92 4.478-.856-.07c.17-2.12-1.883-2.306-1.97-2.314l.07-.857c1.039.083 2.95.87 2.76 3.24h-.004ZM33.634 5.094l-.856-.07c.19-2.371 2.201-2.843 3.24-2.76l-.07.856c-.22-.016-2.148-.095-2.314 1.97v.004Z" fill="#0C426F"/>
  <path d="m40.711 8.248-1.982 24.743c-.157 1.954 1.444 3.675 3.571 3.845 2.132.17 3.981-1.275 4.139-3.224L48.42 8.87" fill="#fff"/>
  <path d="M42.263 37.262a4.3 4.3 0 0 1-3.94-4.626l2.164-26.991.857.07-2.164 26.99a3.443 3.443 0 0 0 3.153 3.705 3.443 3.443 0 0 0 3.704-3.154l2.165-26.99.856.07-2.164 26.99a4.3 4.3 0 0 1-4.627 3.94l-.004-.004ZM41.344 5.711l-.857-.07c.17-2.12-1.883-2.305-1.97-2.314l.071-.856c1.039.082 2.95.869 2.76 3.24h-.004ZM49.054 6.332l-.856-.07c.19-2.372 2.201-2.844 3.24-2.761l-.07.857c-.22-.017-2.148-.096-2.314 1.97v.004ZM56.135 9.485 54.152 34.23c-.157 1.953 1.445 3.675 3.572 3.844 2.131.17 3.98-1.274 4.138-3.224l1.982-24.743" fill="#0C426F"/>
  <path d="M57.687 38.5a4.3 4.3 0 0 1-3.94-4.627l2.164-26.99.857.07-2.165 26.99a3.442 3.442 0 0 0 3.154 3.704 3.443 3.443 0 0 0 3.704-3.153l2.164-26.99.857.07-2.165 26.99a4.3 4.3 0 0 1-4.626 3.94l-.005-.004ZM56.768 6.948l-.857-.07c.17-2.119-1.883-2.305-1.97-2.313l.07-.857c1.04.083 2.951.87 2.76 3.24h-.003ZM64.478 7.569l-.857-.07c.19-2.372 2.202-2.843 3.24-2.76l-.07.856c-.22-.017-2.148-.095-2.313 1.97v.004Z" fill="#0C426F"/>
  <path d="M9.864 5.777 7.88 30.521c-.157 1.953 1.445 3.675 3.572 3.844 2.131.17 3.98-1.274 4.138-3.224l1.982-24.743" fill="#0082EF"/>
  <path d="M11.42 34.792a4.3 4.3 0 0 1-3.94-4.627l2.164-26.99.857.07-2.165 26.99a3.443 3.443 0 0 0 3.154 3.704 3.443 3.443 0 0 0 3.704-3.153l2.164-26.99.857.07-2.165 26.99a4.3 4.3 0 0 1-4.626 3.94l-.005-.004ZM10.497 3.24l-.857-.07C9.81 1.051 7.757.865 7.67.857L7.74 0c1.04.083 2.951.87 2.76 3.24h-.003ZM18.21 3.857l-.856-.07c.19-2.372 2.201-2.843 3.24-2.76l-.07.856c-.22-.017-2.148-.095-2.314 1.97v.004Z" fill="#0C426F"/>
  <path d="M66.683 50 .706 44.711l2.612-32.56 65.978 5.288L66.683 50ZM2.555 43.135l62.552 5.015 2.334-29.134L4.889 14 2.555 43.135Z" fill="#0C426F"/>
  <path d="M66.525 41.294 2.26 36.146l-.617 7.71 64.266 5.148.617-7.71Z" fill="#0C426F"/>
  <path d="M66.683 50 .706 44.71l.757-9.426 65.979 5.288L66.683 50ZM2.555 43.134l62.552 5.016.48-5.997-62.552-5.015-.48 5.996Z" fill="#0C426F"/>
</svg>
