<svg width="84" height="97" viewBox="0 0 84 97" fill="none" xmlns="http://www.w3.org/2000/svg">
  <path d="M68.657 6.644 8.007 68.668" stroke="#02639A" stroke-width="2.51" stroke-miterlimit="10"/>
  <path d="M65.286 64.685a37.89 37.89 0 0 1-9.606 7.146c-8.428 4.393-18.165 5.427-27.218 3.091A37.929 37.929 0 0 1 11.45 65.29C2.293 56.334-1.384 43.89.464 32.15a37.907 37.907 0 0 1 10.38-20.696C24.72-2.734 46.953-3.77 62.052 8.506a38.443 38.443 0 0 1 2.63 2.342c15.04 14.703 15.307 38.803.605 53.837Z" fill="#48C4DA"/>
  <path d="M65.286 64.685a37.892 37.892 0 0 1-9.606 7.146c11.149-18.497-3.593-28.383-3.593-28.383l.04-.052c-.215-.175-.437-.345-.645-.533-4.354-4.062-4.634-11.064-.625-15.47l.04-.04c2.017-2.193 3.058-5.122 2.629-8.076-.45-2.968.344-5.949 2.434-8.084 1.633-1.666 3.8-2.564 6.098-2.687a38.495 38.495 0 0 1 2.63 2.343c15.04 14.702 15.307 38.802.605 53.836h-.007ZM28.462 74.916a37.928 37.928 0 0 1-17.012-9.633C2.293 56.328-1.384 43.884.464 32.143c1.542.905 3.04 1.517 4.465 1.881 4.302 1.107 7.451-1.816 7.77-6.241.014-.189.085-.352.137-.514 0 0 .573-6.541 5.246-11.91.716-.827 1.386-1.393 2.024-1.764a4.26 4.26 0 0 1 1.165-.508c2.447-.65 4.393 2.2 3.02 4.335-.502.768-1.315 1.829-1.979 3.046-.527.937-.95 1.978-1.08 3.072-.065.553-.052 1.1.052 1.66.247 1.281 1.575 2.114 2.792 1.665.02 0 .032-.013.045-.013 2.884-1.12 5.819-.93 7.68.892 2.818 2.76 2.063 8.096-1.692 11.936-.13.137-8.246 9.072-4.55 17.761 2.942 6.931 4.225 11.95 2.916 17.481l-.013-.006Z" fill="#02639A"/>
  <path d="m52.113 43.41-.032.038.104.072c-.026-.04-.046-.078-.072-.11Z" fill="#42BA1A"/>
  <path d="M64.16 2.804a44.412 44.412 0 0 1 4.497 3.84c17.13 16.746 17.436 44.21.684 61.334-16.746 17.13-44.21 17.435-61.334.683a44.937 44.937 0 0 1-3.983-4.465M20.457 76.816l-6.54 14.103M3.861 85.361 24.655 95" stroke="#02639A" stroke-width="4.27" stroke-miterlimit="10"/>
</svg>
