<svg width="178" height="122" viewBox="0 0 178 122" fill="none" xmlns="http://www.w3.org/2000/svg">
  <path d="m52.064 52.098-19.755 3.817 11.102 57.467 19.755-3.817-11.102-57.467Z" fill="#48C4DA"/>
  <path d="M76.694 27.06 56.94 30.877l14.88 77.016 19.754-3.817L76.694 27.06Z" fill="#4E9BCE"/>
  <path d="m110.914 51.793-19.755 3.816 9.042 46.805 19.755-3.817-9.042-46.804Z" fill="#0D72B9"/>
  <path d="m131.312 4.842-19.754 3.816 17.054 88.278 19.755-3.817-17.055-88.277Z" fill="#48C4DA"/>
  <path d="M8.443 15.817 27.787 115.97l143.361-27.688" stroke="#02639A" stroke-width="4.27" stroke-miterlimit="10"/>
  <path d="m2.95 25.547 5.736-8.495 8.488 5.743-1.17-6.032-8.487-5.742-5.743 8.488 1.176 6.038ZM164.164 97.006l5.742-8.488-8.488-5.743 6.038-1.161 8.488 5.742-5.742 8.488-6.038 1.162Z" fill="#02639A"/>
</svg>
