<svg xmlns="http://www.w3.org/2000/svg" width="auto" height="100%" viewBox="0 0 340.63 84.07" style="enable-background:new 0 0 340.63 84.07" xml:space="preserve">
  <path d="M174.51 32.45h-2.29c-1.19 0-1.98.57-2.36 1.72l-7.33 19.44c-.17.42-.32.86-.45 1.31-.13.45-.23.86-.32 1.24l-.32 1.27h-.13c-.13-.42-.26-.87-.38-1.34-.09-.38-.2-.8-.35-1.24-.15-.45-.29-.88-.41-1.31l-7.58-19.43c-.38-1.1-1.17-1.66-2.36-1.66h-2.48c-.77 0-1.31.22-1.62.67-.32.45-.31 1.03.03 1.75l12.49 29.44-1.59 3.7c-.51 1.28-1.23 2.4-2.17 3.38-.93.98-2.06 1.47-3.38 1.47-.55 0-1.03-.09-1.43-.26-.41-.17-.78-.32-1.12-.45-.47-.13-.91-.13-1.34 0s-.76.49-1.02 1.08l-.51 1.08c-.26.55-.31 1.08-.16 1.59s.52.89 1.12 1.15c.55.21 1.2.43 1.94.67.74.23 1.58.35 2.52.35 2.29 0 4.36-.65 6.21-1.94 1.85-1.3 3.26-3.22 4.24-5.77l14.21-35.49c.3-.72.29-1.31-.03-1.75-.32-.45-.87-.67-1.63-.67zM137.49 19.7h-2.87c-1.19 0-1.98.55-2.36 1.66l-9.75 22.68c-.26.64-.51 1.31-.76 2.01-.25.7-.49 1.35-.7 1.94-.26.72-.49 1.42-.7 2.1h-.13c-.26-.68-.51-1.38-.76-2.1-.21-.59-.45-1.24-.7-1.94-.26-.7-.51-1.37-.76-2.01l-9.75-22.68c-.38-1.1-1.17-1.66-2.36-1.66h-2.87c-1.32 0-2.04.66-2.17 1.98l-3.31 40.85c-.09 1.45.59 2.17 2.04 2.17h2.1c1.27 0 1.98-.68 2.1-2.04l2.04-26.32c.09-.68.13-1.41.13-2.2V29.58h.13c.26.85.53 1.68.83 2.48.26.72.52 1.47.8 2.23s.54 1.44.8 2.04l8.28 18.61c.42 1.1 1.23 1.66 2.42 1.66h2.1c1.19 0 2-.55 2.42-1.66l8.28-18.61c.26-.6.52-1.29.8-2.07.28-.79.54-1.52.8-2.2.26-.76.53-1.55.83-2.36h.13c-.04.76-.06 1.53-.06 2.29 0 .68.01 1.4.03 2.17.02.76.07 1.49.16 2.17l2.04 26.32c.13 1.36.85 2.04 2.17 2.04h2.04c1.44 0 2.12-.72 2.04-2.17l-3.31-40.85c-.15-1.31-.88-1.97-2.19-1.97zM42.04 0C18.82 0 0 18.82 0 42.04s18.82 42.04 42.04 42.04 42.04-18.82 42.04-42.04S65.25 0 42.04 0zM61.2 15.95c3.78 0 6.85 3.07 6.85 6.85s-3.07 6.85-6.85 6.85-6.85-3.07-6.85-6.85 3.07-6.85 6.85-6.85zM22.74 68.12c-3.78 0-6.85-3.07-6.85-6.85s3.07-6.85 6.85-6.85 6.85 3.07 6.85 6.85-3.06 6.85-6.85 6.85zm0-19.23c-3.78 0-6.85-3.07-6.85-6.85s3.07-6.85 6.85-6.85 6.85 3.07 6.85 6.85-3.06 6.85-6.85 6.85zm0-19.23c-3.78 0-6.85-3.07-6.85-6.85s3.07-6.85 6.85-6.85 6.85 3.07 6.85 6.85-3.06 6.85-6.85 6.85zm19.23 38.46c-3.78 0-6.85-3.07-6.85-6.85s3.07-6.85 6.85-6.85 6.85 3.07 6.85 6.85-3.06 6.85-6.85 6.85zm0-19.23c-3.78 0-6.85-3.07-6.85-6.85s3.07-6.85 6.85-6.85 6.85 3.07 6.85 6.85-3.06 6.85-6.85 6.85zm0-19.23c-3.78 0-6.85-3.07-6.85-6.85s3.07-6.85 6.85-6.85 6.85 3.07 6.85 6.85-3.06 6.85-6.85 6.85zM61.2 68.12c-3.78 0-6.85-3.07-6.85-6.85s3.07-6.85 6.85-6.85 6.85 3.07 6.85 6.85-3.07 6.85-6.85 6.85zm.13-19.23c-3.78 0-6.85-3.07-6.85-6.85s3.07-6.85 6.85-6.85 6.85 3.07 6.85 6.85-3.06 6.85-6.85 6.85zm278.06 2.58a10.33 10.33 0 0 0-3.09-2.87c-1.23-.74-2.56-1.37-3.98-1.88-1.42-.51-2.75-1.02-3.98-1.53s-2.26-1.09-3.09-1.75-1.24-1.52-1.24-2.58c0-1.36.52-2.38 1.56-3.06s2.33-1.02 3.86-1.02 2.84.21 3.92.64c1.08.42 1.96.83 2.64 1.21 1.27.59 2.21.36 2.8-.7l.57-.96c.34-.59.46-1.14.35-1.62-.11-.49-.46-.88-1.05-1.18-.77-.47-1.88-1-3.35-1.59-1.47-.59-3.32-.89-5.58-.89-1.57 0-3.07.2-4.49.61-1.42.4-2.67.99-3.73 1.75s-1.9 1.73-2.52 2.9c-.62 1.17-.92 2.52-.92 4.05 0 1.83.41 3.31 1.24 4.46.83 1.15 1.86 2.11 3.09 2.9s2.56 1.42 3.98 1.91 2.75 1 3.98 1.53 2.26 1.11 3.09 1.75 1.24 1.49 1.24 2.55c0 1.36-.51 2.41-1.53 3.15s-2.34 1.12-3.95 1.12c-1.91 0-3.53-.32-4.84-.96-1.32-.64-2.34-1.19-3.06-1.66-.64-.34-1.18-.49-1.62-.45-.45.04-.88.34-1.31.89l-.64.89c-.34.55-.49 1.08-.45 1.59.04.51.34.93.89 1.27.42.34.99.71 1.69 1.12.7.4 1.5.79 2.39 1.15s1.9.66 3.03.89c1.12.23 2.37.35 3.73.35 1.74 0 3.32-.23 4.75-.7 1.42-.47 2.65-1.12 3.66-1.97 1.02-.85 1.8-1.86 2.36-3.03.55-1.17.83-2.43.83-3.79.01-1.82-.4-3.32-1.23-4.49zm-96.1-19.79c-2.46 0-4.58.32-6.34.96s-3.13 1.23-4.11 1.78c-1.15.64-1.38 1.59-.7 2.87l.51.89c.68 1.11 1.63 1.36 2.87.77.72-.42 1.71-.87 2.96-1.34s2.69-.7 4.3-.7c.98 0 1.89.12 2.74.35s1.59.63 2.23 1.18 1.14 1.29 1.5 2.2.54 2.03.54 3.35v.83h-1.66c-1.1 0-2.35.04-3.73.13s-2.79.26-4.24.51c-1.45.26-2.84.64-4.17 1.15-1.34.51-2.54 1.17-3.6 1.98s-1.91 1.82-2.55 3.03-.96 2.64-.96 4.3c0 1.53.3 2.88.89 4.05s1.39 2.17 2.39 2.99c1 .83 2.16 1.46 3.47 1.88 1.32.42 2.68.64 4.08.64 1.91 0 3.53-.35 4.84-1.05 1.32-.7 2.4-1.48 3.25-2.33.98-.98 1.79-2.1 2.42-3.38h.13c-.04.17-.08.34-.13.51-.04.17-.06.38-.06.64V62.61c0 1.4.7 2.1 2.1 2.1h1.59c1.4 0 2.1-.7 2.1-2.1V44.3c0-4.12-1.1-7.25-3.31-9.4-2.19-2.14-5.32-3.22-9.35-3.22zm6.56 18.61c0 1.19-.2 2.39-.6 3.6-.4 1.21-.98 2.32-1.72 3.31-.74 1-1.66 1.81-2.74 2.42-1.08.62-2.3.92-3.66.92-2 0-3.49-.54-4.49-1.62s-1.5-2.26-1.5-3.54c0-1.53.47-2.73 1.4-3.6s2.08-1.52 3.44-1.94 2.78-.69 4.27-.8 2.8-.16 3.95-.16h1.66l-.01 1.41zM219.28 19.7h-2.87c-1.19 0-1.97.55-2.36 1.66l-9.75 22.68c-.26.64-.51 1.31-.77 2.01-.26.7-.49 1.35-.7 1.94-.26.72-.49 1.42-.7 2.1H202c-.26-.68-.51-1.38-.77-2.1-.21-.59-.45-1.24-.7-1.94-.26-.7-.51-1.37-.76-2.01l-9.75-22.68c-.38-1.1-1.17-1.66-2.36-1.66h-2.87c-1.32 0-2.04.66-2.17 1.98l-3.31 40.85c-.09 1.45.59 2.17 2.04 2.17h2.1c1.28 0 1.98-.68 2.1-2.04l2.04-26.32c.08-.68.13-1.41.13-2.2V29.58h.13c.26.85.53 1.68.83 2.48.26.72.52 1.47.8 2.23s.54 1.44.8 2.04l8.28 18.61c.42 1.1 1.23 1.66 2.42 1.66h2.1c1.19 0 2-.55 2.42-1.66l8.28-18.61c.25-.6.52-1.29.8-2.07.28-.79.54-1.52.8-2.2.25-.76.53-1.55.83-2.36h.13c-.04.76-.06 1.53-.06 2.29 0 .68.01 1.4.03 2.17.02.76.07 1.49.16 2.17l2.04 26.32c.13 1.36.85 2.04 2.17 2.04h2.04c1.44 0 2.12-.72 2.04-2.17l-3.31-40.85c-.13-1.31-.86-1.97-2.17-1.97zm81.65 11.98c-1.61 0-3.08.23-4.4.7-1.32.47-2.48 1.07-3.5 1.82-1.02.74-1.88 1.55-2.58 2.42s-1.22 1.69-1.56 2.45h-.13c0-.21.02-.47.06-.77.04-.21.07-.49.1-.83.02-.34.03-.7.03-1.08V21.81c0-1.4-.68-2.1-2.04-2.1h-1.98c-1.4 0-2.1.7-2.1 2.1v40.78c0 1.4.7 2.1 2.1 2.1h1.98c1.36 0 2.04-.7 2.04-2.1V49.4c0-1.74.28-3.35.83-4.81.55-1.47 1.31-2.74 2.26-3.82a10.1 10.1 0 0 1 3.41-2.52c1.32-.59 2.74-.89 4.27-.89 1.27 0 2.32.21 3.12.64.81.42 1.43 1 1.88 1.72s.74 1.57.89 2.55c.15.98.22 2.04.22 3.19V62.6c0 1.4.7 2.1 2.1 2.1h1.97c1.4 0 2.1-.7 2.1-2.1V44.04c0-4.12-.89-7.21-2.68-9.27-1.76-2.06-4.56-3.09-8.39-3.09zM276.3 59.4c-.6-.04-1.24-.16-1.94-.35s-1.36-.54-1.98-1.05-1.14-1.23-1.56-2.17c-.43-.93-.64-2.17-.64-3.7V37.8h5.67c1.36 0 2.04-.7 2.04-2.1v-.83c0-1.4-.7-2.1-2.1-2.1h-5.61V25.7c0-1.4-.7-2.1-2.1-2.1h-1.85c-1.4 0-2.1.7-2.1 2.1v7.07h-2.29c-1.4 0-2.1.7-2.1 2.1v.83c0 1.4.68 2.1 2.04 2.1H264v15.29c0 2.04.33 3.8.99 5.29s1.53 2.72 2.61 3.7 2.35 1.7 3.79 2.17 2.97.7 4.59.7c1.7 0 2.55-.7 2.55-2.1v-1.34c0-.72-.16-1.23-.48-1.53-.31-.3-.9-.49-1.75-.58z" style="fill:#172f50"/>
</svg>
