<svg shape-rendering="geometricPrecision" width="auto" height="100%" text-rendering="geometricPrecision" xmlns="http://www.w3.org/2000/svg" xmlns:xlink="http://www.w3.org/1999/xlink" viewBox="0 0 165.8 165.8" style="enable-background:new 0 0 165.8 165.8" xml:space="preserve">
  <a xlink:href="https://mesme.org" transform="translate(248.633 193.487) scale(.52923)">
    <circle cx="-301" cy="-221.1" r="144.5" style="fill:#05baee"/>
    <circle cx="-325.3" cy="-196.8" r="144.5" style="fill:#a6358a"/>
    <path d="M-375-239.6v46.1h-10.3V-219l-12 13.4h-1.4l-12.3-13.2v25.4h-10.2v-46.1h4.3l19.1 20.8 18.4-20.8h4.4zm39.7 37-1.7 9.1h-28v-45.7h27.4l1.7 9.1h-18.7v9.2h15.8v8.6h-15.8v9.5l19.3.2zm6.5 5.5-.8-11.1c4.1 3.6 9.3 5.8 14.8 6.1 3.9 0 6.3-1.8 6.3-4.3 0-3.2-4-4.1-8.3-5.8-7.9-3-12.4-6.7-12.4-14 0-8 5.6-13.8 16-13.8 3.9.1 7.7.8 11.3 2.2l1.1 11c-3.8-2.5-8.2-4-12.7-4.2-3.6 0-5.6 1.8-5.6 4 0 3.2 3.9 4.3 8.6 6 6.2 2.3 12 5.5 12 13.7 0 9.1-7.2 14.1-16.5 14.1-4.9.2-9.7-1.2-13.8-3.9zm83.9-42.5v46.1h-10.3V-219l-12 13.3h-1.5l-12.3-13.2v25.4h-10v-46.1h4.3l19.1 20.8h.1l18.4-20.8h4.2zm39.8 37-1.7 9.1h-28v-45.7h27.3l1.7 9.1h-18.6v9.2h15.8v8.6h-15.8v9.5l19.3.2zm-187.4 21.1v15h-2.6v-9.5l-4.4 5.3h-.4l-4.6-5.3v9.6h-2.5v-15h1.2l6.2 7.4 6.1-7.4h1zm14.7 11.6h-6l-1.5 3.5h-2.7l6.6-15h1.1l6.7 15h-2.7l-1.5-3.5zm-.9-2.2-2-4.9-2 4.9h4zm18.6-6.9h-4.6v12.6h-2.7V-179h-4.7v-2.3h12v2.3zm17.4-2.3v14.9h-2.6v-6.3h-7.2v6.3h-2.6v-14.9h2.6v6.3h7.2v-6.3h2.6zm5.8 13.7-.3-3c1.3 1.2 3 2 4.8 2 1.5 0 2.4-.8 2.4-1.9s-1.3-1.7-2.9-2.4c-2.4-1-4.1-2.1-4.1-4.5s1.8-4.2 5-4.2c1.2 0 2.4.3 3.5.8l.4 2.9c-1.1-.8-2.5-1.3-4-1.4-1.4 0-2.3.8-2.3 1.7 0 1.3 1.5 1.8 3.1 2.4 2 .9 3.9 1.9 3.9 4.4 0 2.8-2.2 4.4-5.1 4.4-1.6.2-3.1-.3-4.4-1.2zm21.6-6.3c-.1-4.1 3.1-7.5 7.2-7.7h.4c1.4 0 2.7.3 3.9 1l.3 2.9c-1.2-1-2.6-1.5-4.1-1.6-2.9.2-5.1 2.8-4.9 5.7.2 2.7 2.3 4.8 5 4.9 1.6 0 3.2-.6 4.5-1.6l-.5 2.8c-1.2.7-2.6 1.1-4 1.1-4.1.2-7.5-3-7.7-7.1-.1 0-.1-.2-.1-.4zm17.4-7.4h2.6v14.9h-2.6v-14.9zm13.6 9.3h-2v5.6h-2.6v-14.9h4.8c3.5 0 5.2 2.1 5.2 4.6 0 1.8-1.1 3.5-2.7 4.2l4.6 6.2h-3.2l-4.1-5.7zm-2-2.2h1.9c1.7 0 2.7-.8 2.7-2.3 0-1.5-1.1-2.4-2.7-2.4h-2v4.7zm12.3.3c-.1-4.1 3.1-7.5 7.2-7.7h.4c1.4 0 2.7.3 4 1l.3 2.9c-1.2-1-2.6-1.5-4.1-1.6-2.9.2-5.2 2.8-4.9 5.7.2 2.7 2.3 4.8 5 4.9 1.6 0 3.2-.6 4.5-1.6l-.5 2.8c-1.2.7-2.6 1.1-4 1.1-4.1.2-7.5-3-7.7-7.1-.2 0-.2-.2-.2-.4zm26.1 5.1-.4 2.3h-8.2v-14.9h2.6v12.6h6zm14.1 0-.5 2.3h-8.8v-14.9h8.6l.4 2.3h-6.4v3.9h5.6v2.3h-5.6v4.1h6.7zm4.8 1.2-.3-3c1.3 1.2 3 2 4.8 2 1.5 0 2.4-.8 2.4-1.9s-1.3-1.7-2.9-2.4c-2.4-1-4.1-2.1-4.1-4.5s1.8-4.2 5-4.2c1.2 0 2.4.3 3.5.8l.4 2.9c-1.2-.8-2.5-1.3-4-1.4-1.5 0-2.3.8-2.3 1.7 0 1.3 1.5 1.8 3.1 2.4 2 .9 3.9 1.9 3.9 4.4 0 2.8-2.2 4.4-5.1 4.4-1.6.2-3.1-.3-4.4-1.2z" style="fill:#fff"/>
  </a>
</svg>
