<svg width="68" height="50" viewBox="0 0 68 50" fill="none" xmlns="http://www.w3.org/2000/svg">
  <path d="M44.745 44.198 8.515 9.385a1.967 1.967 0 0 1-.057-2.781l4.603-4.79a1.967 1.967 0 0 1 2.782-.056l36.23 34.813.072.16 3.536 7.766L58.185 50l-5.504-2.378-7.771-3.36-.163-.071-.002.007Z" fill="#0C426F"/>
  <path d="m44.909 44.266 7.235-7.532 3.536 7.767-3 3.125-7.771-3.36Z" fill="#E6F0F8"/>
  <path d="m12.457 13.176-3.942-3.79a1.967 1.967 0 0 1-.057-2.782l4.603-4.79a1.967 1.967 0 0 1 2.782-.056l3.943 3.79-7.328 7.624v.004Z" fill="#0082EF"/>
  <path d="m19.782 5.551-7.326 7.625 2.146 2.061 7.325-7.624-2.145-2.062Z" fill="#E6F0F8"/>
</svg>
