<svg width="89" height="87" viewBox="0 0 89 87" fill="none" xmlns="http://www.w3.org/2000/svg">
  <path d="M55.262 32.874a16.216 16.216 0 0 1 2.25 13.256c-.68 2.585-.182 5.334 1.316 7.55l.822 1.213a2.76 2.76 0 0 1-.741 3.838l-7.935 5.367a2.76 2.76 0 0 1-3.838-.741l-.833-1.23c-1.49-2.205-3.85-3.69-6.49-4.013a16.215 16.215 0 0 1-11.528-7.099 16.22 16.22 0 0 1 4.41-22.504c7.437-5.032 17.543-3.08 22.572 4.362l-.005.001Z" fill="#FFDA55"/>
  <path d="M51.546 62.364 37.822 42.067a3.262 3.262 0 0 0-4.53-.874l-1.347.911a3.262 3.262 0 0 0-.873 4.53l1.034 1.529a3.262 3.262 0 0 0 4.53.873l6.748-4.564.066-.044 6.748-4.564a3.262 3.262 0 0 0 .874-4.53l-1.034-1.529a3.262 3.262 0 0 0-4.53-.874l-1.346.912a3.262 3.262 0 0 0-.874 4.53L57.012 58.67" stroke="#0C426F" stroke-width=".675" stroke-miterlimit="10"/>
  <path d="m60.648 54.44 7.158 10.589a3.753 3.753 0 0 1-1.005 5.213l-8.092 5.471a3.753 3.753 0 0 1-5.213-1.005l-7.158-10.587 14.313-9.678-.003-.002Z" fill="#0082EF"/>
  <path d="m31.042 26.074-6.373-9.42M24.522 33.598l-10.23-4.978M22.634 43.365l-11.345.808M72.337 39.833l-11.345.807M25.884 52.774l-9.421 6.373M67.16 24.863l-9.42 6.372M33.404 59.291l-4.975 10.232M55.196 14.482 50.22 24.714M39.642 11.479l.806 11.348" stroke="#0082EF" stroke-width="1.065" stroke-miterlimit="10"/>
</svg>
