<svg width="390" height="325" viewBox="0 0 390 325" fill="none" xmlns="http://www.w3.org/2000/svg">
<path d="M303.868 278.177C341.176 267.655 381.751 244.507 388.831 215.513C395.912 186.518 369.497 151.679 345.261 115.436C321.024 79.4271 298.967 42.2491 268.739 39.2094C238.512 36.1697 200.115 67.0345 149.192 78.7257C98.5411 90.4169 35.3635 82.7007 11.9442 102.108C-11.4751 121.515 4.59164 168.28 17.3906 212.473C30.1895 256.899 39.9929 298.988 69.6755 310.445C99.6304 321.902 149.464 302.729 191.401 294.311C233.066 285.894 266.833 288.466 303.868 278.177Z" fill="#FFDA55"/>
<circle cx="338" cy="307" r="7" fill="#FFDA55"/>
<circle cx="85.5" cy="45.5" r="19.5" fill="#FFDA55"/>
<path d="M185.485 122.194L93.955 120.829C91.2823 120.789 89.0833 122.923 89.0434 125.596L88.1043 188.549C88.0645 191.221 90.1988 193.421 92.8716 193.46L184.401 194.826C187.074 194.866 189.273 192.731 189.313 190.058L190.252 127.106C190.292 124.433 188.158 122.234 185.485 122.194Z" stroke="#1274BA" stroke-width="4" stroke-miterlimit="10"/>
<path d="M214.69 220.76L63.9917 218.503C61.0335 218.463 61.3694 215.489 64.7488 211.871L80.1061 195.435C83.4854 191.816 87.7764 188.915 89.6855 188.935L187.036 190.393C188.943 190.423 193.433 193.461 197.049 197.184L213.49 214.09C217.106 217.813 217.64 220.789 214.682 220.749L214.69 220.76Z" fill="#0D74BA"/>
<path opacity="0.18" d="M185.474 122.793L93.9442 121.427C91.2714 121.387 89.0724 123.522 89.0325 126.194L88.0935 189.147C88.0536 191.82 90.1879 194.019 92.8607 194.059L184.391 195.424C187.063 195.464 189.262 193.33 189.302 190.657L190.241 127.704C190.281 125.031 188.147 122.832 185.474 122.793Z" fill="#0D74BA"/>
<path d="M216.758 221.817L61.5552 219.502C60.9533 219.493 60.4581 219.973 60.4491 220.575L60.4355 221.485C60.4265 222.087 60.9072 222.582 61.5091 222.591L216.712 224.907C217.314 224.916 217.809 224.435 217.818 223.833L217.832 222.923C217.841 222.321 217.36 221.826 216.758 221.817Z" fill="#0D74BA"/>
<path d="M151.76 216.807L123.647 216.388C122.859 216.378 122.95 215.593 123.845 214.638L125.892 212.444C126.788 211.489 127.918 210.721 128.423 210.728L146.582 211.002C147.087 211.009 148.278 211.82 149.23 212.796L151.432 215.057C152.393 216.044 152.535 216.835 151.748 216.815L151.76 216.807Z" fill="#02639A"/>
<path d="M197.168 209.303L79.1956 207.537C77.469 207.514 77.3131 205.962 78.8565 204.085L84.239 197.507C85.7824 195.63 88.1803 194.117 89.6127 194.145L187.154 195.611C188.578 195.628 190.944 197.216 192.419 199.133L197.605 205.87C199.09 207.798 198.894 209.336 197.167 209.313L197.168 209.303Z" fill="#02639A"/>
<path d="M218.189 5.76375C220.765 3.89114 224.378 4.46225 226.25 7.03802L233.754 17.359L224.418 24.146L216.915 13.825C215.042 11.2492 215.613 7.63635 218.189 5.76375Z" fill="#06649B"/>
<path d="M268.508 54.086C266.202 57.4466 263.293 60.4761 259.811 63.0105C256.688 65.2809 253.323 66.9932 249.84 68.1528" stroke="#06649B" stroke-width="8.23" stroke-miterlimit="10"/>
<path d="M229.874 38.4407C235.322 41.0441 241.849 38.7383 244.452 33.2905C247.055 27.8427 244.75 21.3159 239.302 18.7125C233.854 16.109 227.327 18.4148 224.724 23.8626C222.12 29.3105 224.426 35.8373 229.874 38.4407Z" stroke="#1074BC" stroke-width="7.68" stroke-miterlimit="10"/>
<path d="M241.884 38.048L267.308 109.696L267.306 109.713L266.943 118.281L261.689 111.859L261.58 111.728L236.156 40.08L241.884 38.048Z" fill="#1074BC"/>
<path d="M267.306 109.713L266.944 118.281L261.689 111.859L267.306 109.713Z" fill="#06649B"/>
<path d="M241.838 38.0811L302.149 84.3663L302.166 84.3685L310.429 86.6659L305.944 79.686L305.848 79.5416L245.537 33.2564L241.838 38.0811Z" fill="#1074BC"/>
<path d="M302.166 84.3683L310.429 86.6658L305.944 79.6858L302.166 84.3683Z" fill="#06649B"/>
<path d="M327.342 257.594L291.053 236.448C288.733 235.096 285.756 235.881 284.404 238.201L251.448 294.757C250.096 297.077 250.881 300.054 253.201 301.406L289.49 322.552C291.81 323.904 294.787 323.119 296.139 320.799L329.095 264.243C330.447 261.923 329.662 258.946 327.342 257.594Z" fill="#0D74BA"/>
<path opacity="0.9" d="M322.984 259.977L291.125 241.412C289.944 240.723 288.428 241.123 287.739 242.305L281.215 253.5C280.527 254.681 280.927 256.197 282.108 256.886L313.967 275.451C315.149 276.139 316.665 275.739 317.353 274.558L323.877 263.363C324.566 262.181 324.166 260.665 322.984 259.977Z" fill="#48C4DA"/>
<path d="M274.553 268.373L278.095 270.437C278.971 270.948 280.095 270.651 280.606 269.775L282.67 266.233C283.18 265.357 282.884 264.233 282.008 263.722L278.466 261.658C277.59 261.148 276.465 261.444 275.955 262.32L273.891 265.862C273.38 266.738 273.677 267.863 274.553 268.373Z" fill="#02639A"/>
<path d="M303.978 285.525L307.519 287.589C308.396 288.1 309.52 287.803 310.03 286.927L312.094 283.385C312.605 282.509 312.308 281.385 311.432 280.874L307.89 278.811C307.014 278.3 305.89 278.596 305.379 279.473L303.316 283.014C302.805 283.891 303.101 285.015 303.978 285.525Z" fill="#02639A"/>
<path d="M284.048 273.903L287.59 275.967C288.466 276.478 289.59 276.181 290.101 275.305L292.165 271.763C292.675 270.887 292.379 269.763 291.503 269.252L287.961 267.188C287.085 266.678 285.961 266.974 285.45 267.85L283.386 271.392C282.876 272.268 283.172 273.392 284.048 273.903Z" fill="#02639A"/>
<path d="M294.016 279.717L297.558 281.781C298.434 282.292 299.558 281.995 300.069 281.119L302.133 277.577C302.643 276.701 302.347 275.577 301.471 275.066L297.929 273.002C297.053 272.492 295.929 272.788 295.418 273.664L293.354 277.206C292.844 278.082 293.14 279.207 294.016 279.717Z" fill="#02639A"/>
<path d="M268.915 278.053L272.457 280.116C273.333 280.627 274.457 280.331 274.968 279.455L277.032 275.913C277.542 275.037 277.246 273.912 276.369 273.402L272.828 271.338C271.951 270.827 270.827 271.124 270.317 272L268.253 275.542C267.742 276.418 268.039 277.542 268.915 278.053Z" fill="#35A7DF"/>
<path d="M298.334 295.202L301.876 297.265C302.752 297.776 303.876 297.48 304.387 296.603L306.45 293.062C306.961 292.185 306.665 291.061 305.788 290.551L302.247 288.487C301.37 287.976 300.246 288.273 299.736 289.149L297.672 292.691C297.161 293.567 297.458 294.691 298.334 295.202Z" fill="#35A7DF"/>
<path d="M278.41 283.583L281.952 285.647C282.828 286.157 283.952 285.861 284.463 284.985L286.527 281.443C287.037 280.567 286.741 279.442 285.865 278.932L282.323 276.868C281.447 276.357 280.323 276.654 279.812 277.53L277.748 281.072C277.238 281.948 277.534 283.072 278.41 283.583Z" fill="#35A7DF"/>
<path d="M288.366 289.394L291.908 291.458C292.784 291.968 293.908 291.672 294.419 290.796L296.483 287.254C296.993 286.378 296.697 285.254 295.821 284.743L292.279 282.679C291.403 282.169 290.278 282.465 289.768 283.341L287.704 286.883C287.193 287.759 287.49 288.883 288.366 289.394Z" fill="#35A7DF"/>
<path d="M263.271 287.729L266.813 289.793C267.689 290.303 268.813 290.007 269.324 289.131L271.388 285.589C271.898 284.713 271.602 283.589 270.726 283.078L267.184 281.014C266.308 280.504 265.183 280.8 264.673 281.676L262.609 285.218C262.099 286.094 262.395 287.218 263.271 287.729Z" fill="#35A7DF"/>
<path d="M287.783 313.299L291.324 315.363C292.201 315.874 293.325 315.577 293.835 314.701L300.808 302.735C301.319 301.859 301.022 300.735 300.146 300.224L296.604 298.16C295.728 297.65 294.604 297.946 294.093 298.822L287.121 310.788C286.61 311.664 286.906 312.789 287.783 313.299Z" fill="#35A7DF"/>
<path d="M272.766 293.266L276.308 295.33C277.184 295.84 278.309 295.544 278.819 294.668L280.883 291.126C281.394 290.25 281.097 289.125 280.221 288.615L276.679 286.551C275.803 286.04 274.679 286.337 274.168 287.213L272.105 290.755C271.594 291.631 271.89 292.755 272.766 293.266Z" fill="#35A7DF"/>
<path d="M282.728 299.073L286.27 301.137C287.146 301.648 288.27 301.351 288.781 300.475L290.844 296.933C291.355 296.057 291.059 294.933 290.182 294.422L286.641 292.359C285.764 291.848 284.64 292.144 284.13 293.021L282.066 296.562C281.555 297.439 281.852 298.563 282.728 299.073Z" fill="#35A7DF"/>
<path d="M257.632 297.413L270.665 305.008C271.541 305.518 272.666 305.222 273.176 304.346L275.24 300.804C275.751 299.928 275.454 298.803 274.578 298.293L261.545 290.698C260.669 290.188 259.545 290.484 259.034 291.36L256.97 294.902C256.46 295.778 256.756 296.903 257.632 297.413Z" fill="#35A7DF"/>
<path d="M277.084 308.75L280.626 310.814C281.502 311.324 282.626 311.028 283.137 310.152L285.201 306.61C285.711 305.734 285.415 304.609 284.539 304.099L280.997 302.035C280.121 301.524 278.997 301.821 278.486 302.697L276.422 306.239C275.912 307.115 276.208 308.239 277.084 308.75Z" fill="#35A7DF"/>
</svg>
