<svg width="100%" height="100%" preserveAspectRatio="xMinYMin" viewBox="0 0 41 40" fill="none" xmlns="http://www.w3.org/2000/svg">
<path fill-rule="evenodd" clip-rule="evenodd" d="M21.9944 2.59559C21.7136 2.02675 21.1343 1.66663 20.4999 1.66663C19.8655 1.66663 19.2862 2.02675 19.0054 2.59559L14.2428 12.2441L3.59217 13.8008C2.96457 13.8926 2.44344 14.3326 2.24781 14.9359C2.05218 15.5393 2.21597 16.2013 2.67033 16.6439L10.3757 24.1489L8.55721 34.7516C8.44996 35.3769 8.70703 36.0088 9.22033 36.3817C9.73363 36.7546 10.4141 36.8037 10.9756 36.5084L20.4999 31.4997L30.0241 36.5084C30.5857 36.8037 31.2661 36.7546 31.7794 36.3817C32.2927 36.0088 32.5498 35.3769 32.4426 34.7516L30.6241 24.1489L38.3294 16.6439C38.7838 16.2013 38.9476 15.5393 38.752 14.9359C38.5563 14.3326 38.0352 13.8926 37.4076 13.8008L26.757 12.2441L21.9944 2.59559ZM16.8444 14.5043L20.4999 7.09872L24.1554 14.5043C24.3979 14.9957 24.8666 15.3365 25.4088 15.4158L33.5859 16.611L27.6703 22.3727C27.2772 22.7556 27.0978 23.3075 27.1905 23.8484L28.5863 31.9861L21.2756 28.1415C20.79 27.8861 20.2098 27.8861 19.7241 28.1415L12.4135 31.9861L13.8092 23.8484C13.902 23.3075 13.7226 22.7556 13.3294 22.3727L7.41391 16.611L15.5909 15.4158C16.1332 15.3365 16.6018 14.9957 16.8444 14.5043Z" fill="#EF3340"/>
</svg>
