<svg width="100%" height="100%" preserveAspectRatio="xMinYMin" viewBox="0 0 41 40" fill="none" xmlns="http://www.w3.org/2000/svg">
<path fill-rule="evenodd" clip-rule="evenodd" d="M31.9699 2.69816C29.8092 1.72042 27.4019 1.42438 25.0688 1.84949C22.7356 2.2746 20.5874 3.40066 18.9105 5.07762C17.2335 6.75457 16.1074 8.90277 15.6823 11.2359C15.3278 13.1817 15.4748 15.179 16.1005 17.0418L5.35426 27.7881C4.37865 28.7637 3.83057 30.0869 3.83057 31.4666C3.83057 32.8463 4.37865 34.1695 5.35426 35.1451C6.32986 36.1207 7.65306 36.6688 9.03277 36.6688C10.4125 36.6688 11.7357 36.1207 12.7113 35.1451L23.4575 24.3988C25.3204 25.0245 27.3177 25.1716 29.2634 24.817C31.5966 24.3919 33.7448 23.2659 35.4217 21.5889C37.0987 19.9119 38.2248 17.7638 38.6499 15.4306C39.075 13.0974 38.7789 10.6901 37.8012 8.52947C37.5756 8.03101 37.1198 7.67499 36.5815 7.57692C36.0433 7.47885 35.4911 7.65121 35.1043 8.03808L28.8328 14.3096L26.1898 11.6666L32.4613 5.3951C32.8482 5.00823 33.0205 4.45611 32.9224 3.91784C32.8244 3.37958 32.4684 2.92373 31.9699 2.69816ZM25.6663 5.12884C26.4724 4.98197 27.2908 4.95561 28.0958 5.04657L23.8209 9.32142L23.8092 9.33326C23.1984 9.95635 22.8563 10.7941 22.8563 11.6666C22.8563 12.5391 23.1984 13.3768 23.8092 13.9999L23.8209 14.0118L26.4876 16.6784L26.4994 16.6902C27.1225 17.3009 27.9603 17.643 28.8328 17.643C29.7053 17.643 30.543 17.3009 31.1661 16.6902L31.1779 16.6784L35.4528 12.4036C35.5438 13.2085 35.5174 14.027 35.3705 14.8331C35.0669 16.4996 34.2625 18.0341 33.0647 19.2319C31.8669 20.4297 30.3325 21.234 28.6659 21.5377C26.9994 21.8413 25.2799 21.6299 23.7366 20.9315C23.1045 20.6455 22.3615 20.7809 21.8709 21.2714L10.3543 32.7881C10.0038 33.1386 9.52842 33.3355 9.03277 33.3355C8.53711 33.3355 8.06176 33.1386 7.71128 32.7881C7.3608 32.4376 7.1639 31.9622 7.1639 31.4666C7.1639 30.9709 7.3608 30.4956 7.71128 30.1451L19.2279 18.6284C19.7185 18.1379 19.8539 17.3948 19.5679 16.7628C18.8695 15.2195 18.658 13.5 18.9617 11.8334C19.2653 10.1669 20.0697 8.63246 21.2675 7.43464C22.4653 6.23682 23.9997 5.43248 25.6663 5.12884Z" fill="#EF3340"/>
</svg>
