<svg width="100%" height="100%" preserveAspectRatio="xMinYMin" viewBox="0 0 41 40" fill="none" xmlns="http://www.w3.org/2000/svg">
<path d="M5.49967 8.33337C4.5792 8.33337 3.83301 9.07957 3.83301 10C3.83301 10.9205 4.5792 11.6667 5.49967 11.6667H5.51634C6.43682 11.6667 7.18301 10.9205 7.18301 10C7.18301 9.07957 6.43682 8.33337 5.51634 8.33337H5.49967Z" fill="#EF3340"/>
<path d="M13.833 8.33337C12.9125 8.33337 12.1663 9.07957 12.1663 10C12.1663 10.9205 12.9125 11.6667 13.833 11.6667H35.4997C36.4202 11.6667 37.1663 10.9205 37.1663 10C37.1663 9.07957 36.4202 8.33337 35.4997 8.33337H13.833Z" fill="#EF3340"/>
<path d="M13.833 18.3334C12.9125 18.3334 12.1663 19.0796 12.1663 20C12.1663 20.9205 12.9125 21.6667 13.833 21.6667H35.4997C36.4202 21.6667 37.1663 20.9205 37.1663 20C37.1663 19.0796 36.4202 18.3334 35.4997 18.3334H13.833Z" fill="#EF3340"/>
<path d="M12.1663 30C12.1663 29.0796 12.9125 28.3334 13.833 28.3334H35.4997C36.4202 28.3334 37.1663 29.0796 37.1663 30C37.1663 30.9205 36.4202 31.6667 35.4997 31.6667H13.833C12.9125 31.6667 12.1663 30.9205 12.1663 30Z" fill="#EF3340"/>
<path d="M3.83301 20C3.83301 19.0796 4.5792 18.3334 5.49967 18.3334H5.51634C6.43682 18.3334 7.18301 19.0796 7.18301 20C7.18301 20.9205 6.43682 21.6667 5.51634 21.6667H5.49967C4.5792 21.6667 3.83301 20.9205 3.83301 20Z" fill="#EF3340"/>
<path d="M5.49967 28.3334C4.5792 28.3334 3.83301 29.0796 3.83301 30C3.83301 30.9205 4.5792 31.6667 5.49967 31.6667H5.51634C6.43682 31.6667 7.18301 30.9205 7.18301 30C7.18301 29.0796 6.43682 28.3334 5.51634 28.3334H5.49967Z" fill="#EF3340"/>
</svg>
