<svg width="100%" height="100%" preserveAspectRatio="xMinYMin" viewBox="0 0 41 40" fill="none" xmlns="http://www.w3.org/2000/svg">
<path fill-rule="evenodd" clip-rule="evenodd" d="M23.8202 3.54011C23.9119 2.80595 23.5087 2.09916 22.83 1.80455C22.1513 1.50994 21.3597 1.69802 20.886 2.26641L4.21933 22.2664C3.80532 22.7632 3.71608 23.4547 3.99038 24.0403C4.26468 24.626 4.853 25.0001 5.49969 25.0001H18.6117L17.1792 36.46C17.0875 37.1942 17.4907 37.9009 18.1694 38.1956C18.8481 38.4902 19.6397 38.3021 20.1134 37.7337L36.7801 17.7337C37.1941 17.2369 37.2833 16.5454 37.009 15.9598C36.7347 15.3742 36.1464 15.0001 35.4997 15.0001H22.3877L23.8202 3.54011ZM20.4997 21.6667H9.0581L19.8075 8.76748L18.8459 16.46C18.7866 16.9344 18.9339 17.4113 19.2502 17.7697C19.5666 18.1281 20.0216 18.3334 20.4997 18.3334H31.9413L21.1919 31.2326L22.1535 23.5401C22.2128 23.0658 22.0655 22.5888 21.7492 22.2304C21.4328 21.872 20.9777 21.6667 20.4997 21.6667Z" fill="#EF3340"/>
</svg>
