<svg width="100%" height="100%" preserveAspectRatio="xMinYMin" viewBox="0 0 41 40" fill="none" xmlns="http://www.w3.org/2000/svg">
<g clip-path="url(#clip0_40_17054)">
<path fill-rule="evenodd" clip-rule="evenodd" d="M15.5 3.33337C10.8976 3.33337 7.16667 7.06433 7.16667 11.6667C7.16667 16.2691 10.8976 20 15.5 20C20.1024 20 23.8333 16.2691 23.8333 11.6667C23.8333 7.06433 20.1024 3.33337 15.5 3.33337ZM10.5 11.6667C10.5 8.90528 12.7386 6.66671 15.5 6.66671C18.2614 6.66671 20.5 8.90528 20.5 11.6667C20.5 14.4281 18.2614 16.6667 15.5 16.6667C12.7386 16.6667 10.5 14.4281 10.5 11.6667Z" fill="#EF3340"/>
<path d="M8.83333 23.3334C6.6232 23.3334 4.50358 24.2113 2.94078 25.7742C1.37797 27.337 0.5 29.4566 0.5 31.6667V35C0.5 35.9205 1.24619 36.6667 2.16667 36.6667C3.08714 36.6667 3.83333 35.9205 3.83333 35V31.6667C3.83333 30.3406 4.36012 29.0689 5.2978 28.1312C6.23548 27.1935 7.50725 26.6667 8.83333 26.6667H22.1667C23.4928 26.6667 24.7645 27.1935 25.7022 28.1312C26.6399 29.0689 27.1667 30.3406 27.1667 31.6667V35C27.1667 35.9205 27.9129 36.6667 28.8333 36.6667C29.7538 36.6667 30.5 35.9205 30.5 35V31.6667C30.5 29.4566 29.622 27.337 28.0592 25.7742C26.4964 24.2113 24.3768 23.3334 22.1667 23.3334H8.83333Z" fill="#EF3340"/>
<path d="M32.2196 24.8C32.4497 23.9088 33.3588 23.3729 34.25 23.603C36.0378 24.0646 37.6216 25.1068 38.7528 26.5661C39.8841 28.0254 40.4986 29.8191 40.5 31.6655V35C40.5 35.9205 39.7538 36.6667 38.8333 36.6667C37.9129 36.6667 37.1667 35.9205 37.1667 35V31.668C37.1657 30.5603 36.797 29.4838 36.1184 28.6084C35.4396 27.7328 34.4893 27.1074 33.4167 26.8305C32.5254 26.6003 31.9895 25.6913 32.2196 24.8Z" fill="#EF3340"/>
<path d="M27.5801 3.60213C26.6884 3.37382 25.7804 3.91161 25.5521 4.80332C25.3238 5.69503 25.8616 6.60298 26.7533 6.8313C27.8288 7.10667 28.7821 7.73217 29.4628 8.60919C30.1436 9.4862 30.5131 10.5648 30.5131 11.675C30.5131 12.7853 30.1436 13.8639 29.4628 14.7409C28.7821 15.6179 27.8288 16.2434 26.7533 16.5188C25.8616 16.7471 25.3238 17.6551 25.5521 18.5468C25.7804 19.4385 26.6884 19.9763 27.5801 19.748C29.3726 19.289 30.9614 18.2465 32.096 16.7848C33.2306 15.3231 33.8464 13.5254 33.8464 11.675C33.8464 9.82469 33.2306 8.02696 32.096 6.56528C30.9614 5.10359 29.3726 4.06109 27.5801 3.60213Z" fill="#EF3340"/>
</g>
<defs>
<clipPath id="clip0_40_17054">
<rect width="100%" height="100%" preserveAspectRatio="xMinYMin" fill="white" transform="translate(0.5)"/>
</clipPath>
</defs>
</svg>
