<svg width="100%" height="100%" preserveAspectRatio="xMinYMin" viewBox="0 0 41 40" fill="none" xmlns="http://www.w3.org/2000/svg">
<g clip-path="url(#clip0_40_17080)">
<path fill-rule="evenodd" clip-rule="evenodd" d="M22.1668 1.66667C22.1668 0.746192 21.4206 0 20.5002 0C19.5797 0 18.8335 0.746192 18.8335 1.66667V6.66667H16.3335C14.3444 6.66667 12.4367 7.45684 11.0302 8.86337C9.62367 10.2699 8.8335 12.1775 8.8335 14.1667C8.8335 16.1558 9.62367 18.0634 11.0302 19.47C12.4367 20.8765 14.3444 21.6667 16.3335 21.6667H18.8335V30H10.5002C9.57969 30 8.8335 30.7462 8.8335 31.6667C8.8335 32.5871 9.57969 33.3333 10.5002 33.3333H18.8335V38.3333C18.8335 39.2538 19.5797 40 20.5002 40C21.4206 40 22.1668 39.2538 22.1668 38.3333V33.3333H24.6668C26.656 33.3333 28.5636 32.5432 29.9701 31.1366C31.3767 29.7301 32.1668 27.8225 32.1668 25.8333C32.1668 23.8442 31.3767 21.9366 29.9701 20.53C28.5636 19.1235 26.656 18.3333 24.6668 18.3333H22.1668V10H28.8335C29.754 10 30.5002 9.25381 30.5002 8.33333C30.5002 7.41286 29.754 6.66667 28.8335 6.66667H22.1668V1.66667ZM18.8335 10H16.3335C15.2284 10 14.1686 10.439 13.3872 11.2204C12.6058 12.0018 12.1668 13.0616 12.1668 14.1667C12.1668 15.2717 12.6058 16.3315 13.3872 17.1129C14.1686 17.8944 15.2284 18.3333 16.3335 18.3333H18.8335V10ZM22.1668 21.6667V30H24.6668C25.7719 30 26.8317 29.561 27.6131 28.7796C28.3945 27.9982 28.8335 26.9384 28.8335 25.8333C28.8335 24.7283 28.3945 23.6685 27.6131 22.8871C26.8317 22.1057 25.7719 21.6667 24.6668 21.6667H22.1668Z" fill="#EF3340"/>
</g>
<defs>
<clipPath id="clip0_40_17080">
<rect width="100%" height="100%" preserveAspectRatio="xMinYMin" fill="white" transform="translate(0.5)"/>
</clipPath>
</defs>
</svg>
