<svg width="100%" height="100%" preserveAspectRatio="xMinYMin" viewBox="0 0 41 40" fill="none" xmlns="http://www.w3.org/2000/svg">
<path fill-rule="evenodd" clip-rule="evenodd" d="M20.5003 38.3333C30.6255 38.3333 38.8337 30.1252 38.8337 20C38.8337 9.87474 30.6255 1.66663 20.5003 1.66663C10.3751 1.66663 2.16699 9.87474 2.16699 20C2.16699 30.1252 10.3751 38.3333 20.5003 38.3333ZM16.7098 5.48301C10.7817 7.02658 6.28034 12.1054 5.59187 18.3333H12.2505C12.6242 13.728 14.1655 9.30733 16.7098 5.48301ZM24.2908 5.48301C26.8352 9.30733 28.3765 13.728 28.7502 18.3333H35.4088C34.7203 12.1054 30.219 7.02658 24.2908 5.48301ZM25.4043 18.3333C24.9857 13.8113 23.2831 9.50318 20.5003 5.91795C17.7175 9.50318 16.015 13.8113 15.5963 18.3333H25.4043ZM15.5963 21.6666H25.4043C24.9857 26.1886 23.2831 30.4967 20.5003 34.082C17.7175 30.4967 16.015 26.1886 15.5963 21.6666ZM12.2505 21.6666H5.59187C6.28034 27.8946 10.7817 32.9733 16.7098 34.5169C14.1655 30.6926 12.6242 26.2719 12.2505 21.6666ZM24.2908 34.5169C26.8352 30.6926 28.3765 26.2719 28.7502 21.6666H35.4088C34.7203 27.8946 30.219 32.9733 24.2908 34.5169Z" fill="#EF3340"/>
</svg>
