<svg width="100%" height="100%" preserveAspectRatio="xMinYMin" viewBox="0 0 41 40" fill="none" xmlns="http://www.w3.org/2000/svg">
<path d="M22.1665 9.99996C22.1665 9.07948 21.4203 8.33329 20.4998 8.33329C19.5794 8.33329 18.8332 9.07948 18.8332 9.99996V20C18.8332 20.6312 19.1898 21.2084 19.7545 21.4907L26.4211 24.824C27.2444 25.2357 28.2456 24.9019 28.6572 24.0786C29.0689 23.2554 28.7352 22.2542 27.9119 21.8426L22.1665 18.9699V9.99996Z" fill="#EF3340"/>
<path fill-rule="evenodd" clip-rule="evenodd" d="M20.4998 1.66663C10.3746 1.66663 2.1665 9.87474 2.1665 20C2.1665 30.1252 10.3746 38.3333 20.4998 38.3333C30.6251 38.3333 38.8332 30.1252 38.8332 20C38.8332 9.87474 30.6251 1.66663 20.4998 1.66663ZM5.49984 20C5.49984 11.7157 12.2156 4.99996 20.4998 4.99996C28.7841 4.99996 35.4998 11.7157 35.4998 20C35.4998 28.2842 28.7841 35 20.4998 35C12.2156 35 5.49984 28.2842 5.49984 20Z" fill="#EF3340"/>
</svg>
