<svg xmlns="http://www.w3.org/2000/svg" viewBox="0 0 435 87">
  <g>
    <path d="M42.57,82A37.61,37.61,0,0,1,5,44.43V42.57A37.61,37.61,0,0,1,42.57,5H332V0H42.57A42.62,42.62,0,0,0,0,42.57v1.86A42.62,42.62,0,0,0,42.57,87H332V82Z" fill="#fff"/>
    <g>
      <g>
        <path d="M38.62,25,50.47,54.56,62.33,25h6.2V61.24H63.75V47.12l.44-15.24L52.29,61.24H48.63L36.75,32l.48,15.17V61.24H32.44V25Z" fill="#4189c5"/>
        <path d="M100,44.48H84.3V57.33h18.25v3.91h-23V25H102.3v3.91h-18V40.57H100Z" fill="#4189c5"/>
        <path d="M137.83,56.48a11.07,11.07,0,0,1-5.15,4A20.8,20.8,0,0,1,125,61.74a15,15,0,0,1-7.87-2.08,13.93,13.93,0,0,1-5.32-5.92,20.41,20.41,0,0,1-1.92-8.89V41.69q0-8.19,3.82-12.7t10.74-4.51a13.78,13.78,0,0,1,9.14,2.9,12.68,12.68,0,0,1,4.24,8.23H133q-1.33-7.21-8.56-7.22a8.48,8.48,0,0,0-7.29,3.38q-2.47,3.38-2.5,9.78v3q0,6.1,2.79,9.7A9,9,0,0,0,125,57.83a16.51,16.51,0,0,0,4.7-.6,7.31,7.31,0,0,0,3.34-2V47.09h-8.39V43.18h13.15Z" fill="#4189c5"/>
        <path d="M168.37,51.75H153.18l-3.42,9.49h-4.93L158.68,25h4.18l13.87,36.26h-4.9Zm-13.75-3.91H167l-6.18-17Z" fill="#4189c5"/>
        <path d="M190.27,49.81l.69,4.78,1-4.31L199.16,25h4l7,25.3,1,4.38.78-4.88L217.58,25h4.81L213.6,61.24h-4.36l-7.47-26.42-.57-2.77-.58,2.77-7.74,26.42h-4.36L179.76,25h4.78Z" fill="#4189c5"/>
        <path d="M249.19,51.75H234l-3.41,9.49h-4.93L239.51,25h4.18l13.87,36.26h-4.9Zm-13.74-3.91h12.32l-6.17-17Z" fill="#4189c5"/>
        <path d="M286.83,28.89H275.18V61.24h-4.76V28.89H258.79V25h28Z" fill="#4189c5"/>
        <path d="M320.21,28.89H308.56V61.24H303.8V28.89H292.17V25h28Z" fill="#4189c5"/>
      </g>
      <path d="M390.27,38.88,399,25h5.63L393.14,43l11.73,18.28h-5.68l-8.92-14.15-9,14.15h-5.66L387.41,43,375.93,25h5.6Z" fill="#fff"/>
      <path d="M356.19,47.72H338.57V44h17.62Z" fill="#fff"/>
    </g>
    <path d="M435,42.57v1.86A42.62,42.62,0,0,1,392.43,87H332V82h60.43A37.61,37.61,0,0,0,430,44.43V42.57A37.61,37.61,0,0,0,392.43,5H332V0h60.43A42.62,42.62,0,0,1,435,42.57Z" fill="#4189c5"/>
  </g>
</svg>
